<svg preserveAspectRatio="none" width="100%" height="100%" overflow="visible" style="display: block;" viewBox="0 0 58 29" fill="none" xmlns="http://www.w3.org/2000/svg">
<g id="Group">
<path id="Vector" d="M0 1.05947C0 0.472689 0.472689 0 1.05948 0H6.84176C7.88901 0 8.89552 0.387116 9.67382 1.088L22.5913 12.7137C23.5244 13.5531 23.5244 15.0201 22.5913 15.8595L9.67382 27.4852C8.89552 28.1861 7.88901 28.5732 6.84176 28.5732H1.05948C0.476764 28.5732 0 28.1005 0 27.5137V25.5578C0 24.9506 0.260794 24.3761 0.713108 23.9727L10.6966 15.122C11.1897 14.686 11.1693 13.9117 10.6518 13.5002L0.798681 5.66412C0.293393 5.2607 0 4.65354 0 4.00971V1.05947Z" fill="var(--fill-0, #CCCCCC)"/>
<path id="Vector_2" d="M57.1349 1.05947C57.1349 0.476764 56.6622 0 56.0754 0H50.2931C49.2459 0 48.2394 0.387116 47.4611 1.088L34.5436 12.7137C33.6105 13.5531 33.6105 15.0201 34.5436 15.8595L47.4611 27.4852C48.2394 28.1861 49.2459 28.5732 50.2931 28.5732H56.0754C56.6581 28.5732 57.1349 28.1005 57.1349 27.5137V25.081C57.1349 24.7795 57.0045 24.4902 56.7804 24.2905L46.4383 15.126C45.9452 14.69 45.9656 13.9158 46.4831 13.5042L56.3403 5.66412C56.8456 5.2607 57.139 4.65354 57.139 4.00971V1.05947H57.1349Z" fill="var(--fill-0, #CCCCCC)"/>
<path id="Vector_3" d="M28.2398 10.966C30.3916 10.966 32.1359 9.22164 32.1359 7.0699C32.1359 4.91816 30.3916 3.17383 28.2398 3.17383C26.0881 3.17383 24.3438 4.91816 24.3438 7.0699C24.3438 9.22164 26.0881 10.966 28.2398 10.966Z" fill="var(--fill-0, #CCCCCC)"/>
<path id="Vector_4" d="M28.2398 24.7228C30.3916 24.7228 32.1359 22.9785 32.1359 20.8267C32.1359 18.675 30.3916 16.9307 28.2398 16.9307C26.0881 16.9307 24.3438 18.675 24.3438 20.8267C24.3438 22.9785 26.0881 24.7228 28.2398 24.7228Z" fill="var(--fill-0, #CCCCCC)"/>
</g>
</svg>
