<svg preserveAspectRatio="none" width="100%" height="100%" overflow="visible" style="display: block;" viewBox="0 0 67 34" fill="none" xmlns="http://www.w3.org/2000/svg">
<g id="Group">
<path id="Vector" d="M0 1.24016C0 0.553302 0.553302 0 1.24016 0H8.00857C9.23442 0 10.4126 0.453135 11.3236 1.27355L26.444 14.8819C27.5363 15.8645 27.5363 17.5816 26.444 18.5642L11.3236 32.1726C10.4126 32.993 9.23442 33.4461 8.00857 33.4461H1.24016C0.558072 33.4461 0 32.8928 0 32.206V29.9165C0 29.2057 0.30527 28.5332 0.834723 28.061L12.5208 17.7009C13.098 17.1905 13.0741 16.2842 12.4684 15.8025L0.934889 6.63008C0.343429 6.15787 0 5.44716 0 4.69353V1.24016Z" fill="var(--fill-0, #CACACA)"/>
<path id="Vector_2" d="M66.8882 1.24016C66.8882 0.558072 66.3349 0 65.6481 0H58.8797C57.6538 0 56.4757 0.453135 55.5646 1.27355L40.4442 14.8819C39.3519 15.8645 39.3519 17.5816 40.4442 18.5642L55.5646 32.1726C56.4757 32.993 57.6538 33.4461 58.8797 33.4461H65.6481C66.3302 33.4461 66.8882 32.8928 66.8882 32.206V29.3584C66.8882 29.0054 66.7356 28.6668 66.4733 28.433L54.3674 17.7057C53.7902 17.1953 53.8141 16.289 54.4199 15.8073L65.9581 6.63008C66.5496 6.15787 66.893 5.44716 66.893 4.69353V1.24016H66.8882Z" fill="var(--fill-0, #CACACA)"/>
<path id="Vector_3" d="M33.0527 12.8368C35.5714 12.8368 37.6132 10.795 37.6132 8.27633C37.6132 5.75763 35.5714 3.71582 33.0527 3.71582C30.534 3.71582 28.4922 5.75763 28.4922 8.27633C28.4922 10.795 30.534 12.8368 33.0527 12.8368Z" fill="var(--fill-0, #CACACA)"/>
<path id="Vector_4" d="M33.0527 28.9394C35.5714 28.9394 37.6132 26.8976 37.6132 24.3789C37.6132 21.8602 35.5714 19.8184 33.0527 19.8184C30.534 19.8184 28.4922 21.8602 28.4922 24.3789C28.4922 26.8976 30.534 28.9394 33.0527 28.9394Z" fill="var(--fill-0, #CACACA)"/>
</g>
</svg>
