<svg preserveAspectRatio="none" width="100%" height="100%" overflow="visible" style="display: block;" viewBox="0 0 38 19" fill="none" xmlns="http://www.w3.org/2000/svg">
<g id="Group">
<path id="Vector" d="M0 0.698248C0 0.311526 0.311526 0 0.698248 0H4.50907C5.19926 0 5.86259 0.255129 6.37554 0.717047L14.8888 8.37897C15.5038 8.9322 15.5038 9.899 14.8888 10.4522L6.37554 18.1142C5.86259 18.5761 5.19926 18.8312 4.50907 18.8312H0.698248C0.314211 18.8312 0 18.5197 0 18.133V16.8439C0 16.4437 0.171876 16.0651 0.469974 15.7992L7.04961 9.96614C7.37457 9.67879 7.36114 9.16853 7.02007 8.89729L0.526371 3.73294C0.193361 3.46707 0 3.06692 0 2.6426V0.698248Z" fill="var(--fill-0, #CCCCCC)"/>
<path id="Vector_2" d="M37.6547 0.698248C37.6547 0.314211 37.3432 0 36.9565 0H33.1457C32.4555 0 31.7921 0.255129 31.2792 0.717047L22.7659 8.37897C22.1509 8.9322 22.1509 9.899 22.7659 10.4522L31.2792 18.1142C31.7921 18.5761 32.4555 18.8312 33.1457 18.8312H36.9565C37.3405 18.8312 37.6547 18.5197 37.6547 18.133V16.5297C37.6547 16.3309 37.5688 16.1403 37.4211 16.0087L30.6051 9.96883C30.2802 9.68147 30.2936 9.17121 30.6346 8.89997L37.131 3.73294C37.464 3.46707 37.6574 3.06692 37.6574 2.6426V0.698248H37.6547Z" fill="var(--fill-0, #CCCCCC)"/>
<path id="Vector_3" d="M18.6068 7.22721C20.0249 7.22721 21.1745 6.07761 21.1745 4.6595C21.1745 3.2414 20.0249 2.0918 18.6068 2.0918C17.1887 2.0918 16.0391 3.2414 16.0391 4.6595C16.0391 6.07761 17.1887 7.22721 18.6068 7.22721Z" fill="var(--fill-0, #CCCCCC)"/>
<path id="Vector_4" d="M18.6068 16.2936C20.0249 16.2936 21.1745 15.144 21.1745 13.7259C21.1745 12.3078 20.0249 11.1582 18.6068 11.1582C17.1887 11.1582 16.0391 12.3078 16.0391 13.7259C16.0391 15.144 17.1887 16.2936 18.6068 16.2936Z" fill="var(--fill-0, #CCCCCC)"/>
</g>
</svg>
