<svg preserveAspectRatio="none" width="100%" height="100%" overflow="visible" style="display: block;" viewBox="0 0 36 36" fill="none" xmlns="http://www.w3.org/2000/svg">
<path id="Vector" d="M16.1877 1.10315C16.9482 -0.367718 19.0517 -0.367718 19.8122 1.10315L24.6551 10.4696C24.8492 10.8449 25.155 11.1507 25.5305 11.3448L34.8968 16.1877C36.3677 16.9482 36.3677 19.0517 34.8968 19.8122L25.5305 24.6551C25.155 24.8492 24.8492 25.155 24.6551 25.5305L19.8122 34.8968C19.0517 36.3677 16.9482 36.3677 16.1877 34.8968L11.3448 25.5305C11.1507 25.155 10.8449 24.8492 10.4696 24.6551L1.10315 19.8122C-0.367718 19.0517 -0.367718 16.9482 1.10315 16.1877L10.4696 11.3448C10.8449 11.1507 11.1507 10.8449 11.3448 10.4696L16.1877 1.10315Z" fill="url(#paint0_linear_14908_41782)"/>
<defs>
<linearGradient id="paint0_linear_14908_41782" x1="26.91" y1="6.48" x2="13.77" y2="35.01" gradientUnits="userSpaceOnUse">
<stop offset="0.392777" stop-color="#F0F0F0"/>
<stop offset="1" stop-color="#F0F0F0" stop-opacity="0"/>
</linearGradient>
</defs>
</svg>
