<svg preserveAspectRatio="none" width="100%" height="100%" overflow="visible" style="display: block;" viewBox="0 0 152 152" fill="none" xmlns="http://www.w3.org/2000/svg">
<path id="Vector" d="M68.3482 4.65776C71.5592 -1.55259 80.4407 -1.55259 83.6517 4.65776L104.099 44.2049C104.919 45.7897 106.21 47.0809 107.795 47.9004L147.342 68.3482C153.553 71.5592 153.553 80.4407 147.342 83.6517L107.795 104.099C106.21 104.919 104.919 106.21 104.099 107.795L83.6517 147.342C80.4407 153.553 71.5592 153.553 68.3482 147.342L47.9004 107.795C47.0809 106.21 45.7897 104.919 44.2049 104.099L4.65776 83.6517C-1.55259 80.4407 -1.55259 71.5592 4.65776 68.3482L44.2049 47.9004C45.7897 47.0809 47.0809 45.7897 47.9004 44.2049L68.3482 4.65776Z" fill="url(#paint0_linear_14908_41786)"/>
<defs>
<linearGradient id="paint0_linear_14908_41786" x1="113.62" y1="27.36" x2="58.14" y2="147.82" gradientUnits="userSpaceOnUse">
<stop offset="0.400172" stop-color="#F0F0F0"/>
<stop offset="1" stop-color="#F0F0F0" stop-opacity="0"/>
</linearGradient>
</defs>
</svg>
