<svg preserveAspectRatio="none" width="100%" height="100%" overflow="visible" style="display: block;" viewBox="0 0 77 57" fill="none" xmlns="http://www.w3.org/2000/svg">
<g id="Group">
<path id="Vector" d="M0.225135 0H11.5986L29.4177 17.819V23.2056H15.7928L0 7.41279L0.225135 0Z" fill="var(--fill-0, #CCCCCC)"/>
<path id="Vector_2" d="M75.8019 0H64.4201L46.6094 17.819V23.2056H60.2259L76.0271 7.41279L75.8019 0Z" fill="var(--fill-0, #CCCCCC)"/>
<path id="Vector_3" d="M0.225135 56.7417H11.5986L29.4177 38.9227V33.5361H15.7928L0 49.3289L0.225135 56.7417Z" fill="var(--fill-0, #CCCCCC)"/>
<path id="Vector_4" d="M75.7394 56.7417H64.3576L46.5469 38.9227V33.5361H60.1634L75.9646 49.329L75.7394 56.7417Z" fill="var(--fill-0, #CCCCCC)"/>
<path id="Vector_5" d="M37.9538 33.2934C41.2636 33.2934 43.9467 30.6103 43.9467 27.3005C43.9467 23.9907 41.2636 21.3076 37.9538 21.3076C34.644 21.3076 31.9609 23.9907 31.9609 27.3005C31.9609 30.6103 34.644 33.2934 37.9538 33.2934Z" fill="var(--fill-0, #CCCCCC)"/>
</g>
</svg>
