<svg preserveAspectRatio="none" width="100%" height="100%" overflow="visible" style="display: block;" viewBox="0 0 106 79" fill="none" xmlns="http://www.w3.org/2000/svg">
<g id="Group">
<path id="Vector" d="M0.310975 0H16.021L40.6341 24.6131V32.0535H21.8143L0 10.2392L0.310975 0Z" fill="var(--fill-0, #CACACA)"/>
<path id="Vector_2" d="M104.706 0H88.9844L64.3828 24.6131V32.0535H83.1911L105.017 10.2392L104.706 0Z" fill="var(--fill-0, #CACACA)"/>
<path id="Vector_3" d="M0.310975 78.3777H16.021L40.6341 53.7646V46.3242H21.8143L0 68.1386L0.310975 78.3777Z" fill="var(--fill-0, #CACACA)"/>
<path id="Vector_4" d="M104.636 78.3777H88.9141L64.3125 53.7646V46.3242H83.1207L104.947 68.1386L104.636 78.3777Z" fill="var(--fill-0, #CACACA)"/>
<path id="Vector_5" d="M52.4263 45.9884C56.9981 45.9884 60.7042 42.2822 60.7042 37.7105C60.7042 33.1387 56.9981 29.4326 52.4263 29.4326C47.8546 29.4326 44.1484 33.1387 44.1484 37.7105C44.1484 42.2822 47.8546 45.9884 52.4263 45.9884Z" fill="var(--fill-0, #CACACA)"/>
</g>
</svg>
