<svg preserveAspectRatio="none" width="100%" height="100%" overflow="visible" style="display: block;" viewBox="0 0 14 14" fill="none" xmlns="http://www.w3.org/2000/svg">
<g id="Logo">
<path id="Vector" fill-rule="evenodd" clip-rule="evenodd" d="M2.30396 2.44187C2.73717 2.79383 2.89968 2.76698 3.71317 2.7127L11.3822 2.25221C11.5449 2.25221 11.4096 2.08994 11.3554 2.06298L10.0817 1.14222C9.83766 0.952744 9.51252 0.73576 8.88936 0.79004L1.4634 1.33166C1.19258 1.35852 1.13849 1.49393 1.24634 1.60246L2.30396 2.44187ZM2.7644 4.22915V12.2983C2.7644 12.732 2.98111 12.8942 3.46887 12.8674L11.8972 12.3797C12.3852 12.3529 12.4395 12.0546 12.4395 11.7023V3.68728C12.4395 3.33557 12.3042 3.1459 12.0055 3.17297L3.19785 3.68728C2.8728 3.7146 2.76437 3.87719 2.76437 4.22915H2.7644ZM11.0848 4.66199C11.1388 4.90594 11.0848 5.14967 10.8404 5.17709L10.4343 5.25801V11.2152C10.0817 11.4047 9.75658 11.513 9.48564 11.513C9.05187 11.513 8.94322 11.3775 8.61831 10.9716L5.962 6.80153V10.8362L6.80257 11.0259C6.80257 11.0259 6.80257 11.513 6.12441 11.513L4.25487 11.6215C4.20057 11.513 4.25487 11.2425 4.44451 11.1883L4.93238 11.0531V5.71847L4.25501 5.66419C4.20068 5.42025 4.33598 5.06851 4.71567 5.04122L6.72124 4.90602L9.48564 9.13037V5.39339L8.78082 5.31251C8.72673 5.01428 8.94322 4.79774 9.21427 4.77088L11.0848 4.66199ZM0.839905 0.600594L8.56408 0.031761C9.51263 -0.0495908 9.75669 0.00490857 10.3529 0.437972L12.8185 2.17097C13.2254 2.46897 13.361 2.55011 13.361 2.87497V12.3797C13.361 12.9754 13.144 13.3277 12.3853 13.3816L3.41519 13.9233C2.84567 13.9504 2.57463 13.8692 2.27637 13.4899L0.460629 11.1341C0.135303 10.7004 0 10.376 0 9.99645V1.54799C0 1.06087 0.217066 0.654518 0.839905 0.600594V0.600594Z" fill="var(--fill-0, black)"/>
</g>
</svg>
