<svg preserveAspectRatio="none" width="100%" height="100%" overflow="visible" style="display: block;" viewBox="0 0 11 14" fill="none" xmlns="http://www.w3.org/2000/svg">
<g id="Logo">
<path id="Vector" d="M9.13 2.15021C8.5441 2.15021 8.1261 2.40553 7.74053 2.96016L6.62895 4.55631V0H3.97738V4.55631L2.8658 2.96016C2.4808 2.40553 2.0628 2.15021 1.47633 2.15021C0.591696 2.15021 0.00290703 2.80326 1.22947e-05 3.608C-0.00230349 4.29695 0.322486 4.74621 1.00738 5.18737L5.30317 7.95474L9.59895 5.18737C10.2838 4.74621 10.6086 4.29695 10.6063 3.608C10.604 2.80326 10.0146 2.15021 9.13 2.15021Z" fill="var(--fill-0, #0AAD0A)"/>
<path id="Vector_2" d="M5.30318 8.61781C7.85634 8.61781 9.94924 10.5237 9.94345 13.2587H0.662913C0.657702 10.5249 2.75002 8.61781 5.30318 8.61781Z" fill="var(--fill-0, #FF7009)"/>
</g>
</svg>
