<svg preserveAspectRatio="none" width="100%" height="100%" overflow="visible" style="display: block;" viewBox="0 0 14 14" fill="none" xmlns="http://www.w3.org/2000/svg">
<g id="Logo">
<path id="Vector" d="M13.8609 7.42284C13.8609 6.94699 13.8216 6.46858 13.7376 6.00046H7.00131V8.69603H10.8589C10.6988 9.5654 10.1844 10.3345 9.4313 10.8232V12.5722H11.7327C13.0842 11.353 13.8609 9.55254 13.8609 7.42284Z" fill="var(--fill-0, #4285F4)"/>
<path id="Vector_2" d="M7.14171 14.0005C9.06786 14.0005 10.6922 13.3806 11.8757 12.3106L9.57432 10.5615C8.93403 10.9885 8.10741 11.2303 7.14433 11.2303C5.28117 11.2303 3.70141 9.99825 3.13459 8.34181H0.759705V10.1449C1.97208 12.5086 4.44143 14.0005 7.14171 14.0005V14.0005Z" fill="var(--fill-0, #34A853)"/>
<path id="Vector_3" d="M3.13196 8.3418C2.8328 7.47243 2.8328 6.53104 3.13196 5.66166V3.85861H0.7597C-0.253233 5.83657 -0.253233 8.1669 0.7597 10.1449L3.13196 8.3418V8.3418Z" fill="var(--fill-0, #FBBC04)"/>
<path id="Vector_4" d="M7.14171 2.77064C8.15989 2.7552 9.14396 3.13073 9.88135 3.82006L11.9203 1.82153C10.6292 0.633211 8.91566 -0.0201052 7.14171 0.000471722C4.44143 0.000471722 1.97208 1.4923 0.759705 3.85864L3.13196 5.66169C3.69616 4.00268 5.27854 2.77064 7.14171 2.77064V2.77064Z" fill="var(--fill-0, #EA4335)"/>
</g>
</svg>
