<svg preserveAspectRatio="none" width="100%" height="100%" overflow="visible" style="display: block;" viewBox="0 0 24 27" fill="none" xmlns="http://www.w3.org/2000/svg">
<g id="Group 12651">
<g id="Vector 19" filter="url(#filter0_d_51_1400)">
<path d="M10 0L0 24L2 21.3334L0 25.3334L2.66667 20.6667L1.33334 24L2.66667 22L1.33334 25.3334L4.00001 20.6667L2 26.0001L4.66668 20.6667L3.33334 24.6667L10.6667 9.33335L18.6667 23.3334L18 20.6667L19.3334 23.3334L18.6667 20.6667L21.3334 24.6667L19.3334 20L20.6667 21.3334L10 0Z" fill="var(--fill-0, #EB2128)"/>
</g>
<g id="Group 12650">
<path id="Vector 21" d="M4.66406 20.0003L8.66407 10.667L6.66407 14.8151L4.66406 20.0003Z" fill="var(--fill-0, black)"/>
<path id="Vector 22" d="M2 22L4.66667 16L3.33334 18.6667L2 22Z" fill="var(--fill-0, black)"/>
<path id="Vector 23" d="M2.00004 20.667L4.66671 14.667L3.33337 17.3337L2.00004 20.667Z" fill="var(--fill-0, black)"/>
</g>
<g id="Vector 20" filter="url(#filter1_d_51_1400)">
<path d="M21.3308 14.667L1.33073 19.3337L0.664062 20.0003H1.9974L0.664062 20.667H1.33073V21.3337L2.66407 20.667L0.664062 22.0003L7.99741 20.0003L6.66407 20.667L20.6641 18.0003L22.6641 17.3337H20.4141L21.9974 16.667L16.6641 17.3337L23.3308 15.667H21.5391L22.6641 15.3337L18.9141 16.0003L20.6641 15.3337L17.9974 16.0003L21.3308 14.667Z" fill="var(--fill-0, #EB2128)"/>
</g>
</g>
<defs>
<filter id="filter0_d_51_1400" x="0" y="0" width="22" height="26.6667" filterUnits="userSpaceOnUse" color-interpolation-filters="sRGB">
<feFlood flood-opacity="0" result="BackgroundImageFix"/>
<feColorMatrix in="SourceAlpha" type="matrix" values="0 0 0 0 0 0 0 0 0 0 0 0 0 0 0 0 0 0 127 0" result="hardAlpha"/>
<feOffset dx="0.666668" dy="0.666668"/>
<feComposite in2="hardAlpha" operator="out"/>
<feColorMatrix type="matrix" values="0 0 0 0 0 0 0 0 0 0 0 0 0 0 0 0 0 0 1 0"/>
<feBlend mode="normal" in2="BackgroundImageFix" result="effect1_dropShadow_51_1400"/>
<feBlend mode="normal" in="SourceGraphic" in2="effect1_dropShadow_51_1400" result="shape"/>
</filter>
<filter id="filter1_d_51_1400" x="0.664062" y="14.667" width="23.3334" height="7.60002" filterUnits="userSpaceOnUse" color-interpolation-filters="sRGB">
<feFlood flood-opacity="0" result="BackgroundImageFix"/>
<feColorMatrix in="SourceAlpha" type="matrix" values="0 0 0 0 0 0 0 0 0 0 0 0 0 0 0 0 0 0 127 0" result="hardAlpha"/>
<feOffset dx="0.666668" dy="0.266667"/>
<feComposite in2="hardAlpha" operator="out"/>
<feColorMatrix type="matrix" values="0 0 0 0 0 0 0 0 0 0 0 0 0 0 0 0 0 0 1 0"/>
<feBlend mode="normal" in2="BackgroundImageFix" result="effect1_dropShadow_51_1400"/>
<feBlend mode="normal" in="SourceGraphic" in2="effect1_dropShadow_51_1400" result="shape"/>
</filter>
</defs>
</svg>
