<svg preserveAspectRatio="none" width="100%" height="100%" overflow="visible" style="display: block;" viewBox="0 0 14 14" fill="none" xmlns="http://www.w3.org/2000/svg">
<g id="Logo">
<path id="Vector" fill-rule="evenodd" clip-rule="evenodd" d="M11.3717 0.10859C11.317 0.104107 11.2604 0.115642 11.2092 0.145163L6.96783 2.59394L2.72641 0.145163C2.67988 0.1183 2.62884 0.10633 2.57881 0.107772C2.52878 0.10633 2.47774 0.1183 2.43121 0.145163L0.251889 1.40339C0.166666 1.4526 0.117145 1.53989 0.112415 1.63136C0.109287 1.6481 0.107655 1.66536 0.107655 1.683V11.6091C0.107655 11.6235 0.108753 11.6377 0.110868 11.6516C0.104377 11.7543 0.155022 11.8567 0.250166 11.9116L2.42948 13.1698C2.48282 13.2006 2.54208 13.2118 2.59896 13.2057C2.65584 13.2118 2.7151 13.2006 2.76843 13.1698L4.94773 11.9116C4.99383 11.885 5.02945 11.8473 5.05323 11.8038C5.08192 11.7598 5.09863 11.7074 5.09863 11.651V6.87345L6.87538 7.89924C6.92652 7.92875 6.98308 7.94029 7.03778 7.93581C7.09245 7.94029 7.14901 7.92875 7.20014 7.89924L8.91521 6.90903V11.651C8.91521 11.6777 8.91895 11.7035 8.92593 11.728C8.94191 11.8026 8.98826 11.8704 9.05956 11.9116L11.2389 13.1698C11.2912 13.2 11.3491 13.2114 11.405 13.2061C11.4608 13.2114 11.5188 13.2 11.5711 13.1698L13.7505 11.9116C13.8466 11.8561 13.8973 11.7522 13.8895 11.6484C13.8913 11.6356 13.8923 11.6224 13.8923 11.609V1.683C13.8923 1.59403 13.8507 1.51477 13.786 1.46356C13.7659 1.44015 13.7416 1.41968 13.7134 1.40339L11.5341 0.145163C11.4829 0.115642 11.4264 0.104107 11.3717 0.10859ZM13.333 11.5068V1.9709L7.06031 5.59247C7.01401 5.61922 6.96326 5.63119 6.91346 5.6299C6.86367 5.63119 6.81292 5.61922 6.76661 5.59247L0.666866 2.07078V11.5065L2.34449 12.475V5.17807C2.34449 5.09919 2.37716 5.02794 2.42972 4.97711C2.51255 4.86193 2.67085 4.82604 2.79634 4.8985L7.03774 7.34725L11.2792 4.8985C11.4129 4.82126 11.5839 4.8671 11.6611 5.00085C11.6738 5.02282 11.6832 5.04582 11.6894 5.06926C11.7035 5.10273 11.7114 5.13947 11.7114 5.17807V12.4431L13.333 11.5068ZM11.1521 12.474L9.47443 11.5054V6.61804C9.47443 6.60762 9.47387 6.59732 9.47275 6.58716L11.1521 5.61754V12.474ZM4.53941 11.5016V6.61804C4.53941 6.59629 4.54191 6.5751 4.5466 6.55472L2.9037 5.60621V12.446L4.53941 11.5016ZM12.8963 1.57735L6.91346 5.03152L0.999834 1.61729L2.57881 0.705671L6.80543 3.14591C6.85656 3.17542 6.91312 3.18697 6.96783 3.18249C7.02253 3.18697 7.07909 3.17542 7.13018 3.14591L11.3717 0.69712L12.8963 1.57735Z" fill="var(--fill-0, black)"/>
<path id="Vector_2" d="M11.3717 0.108627L11.3629 0.215962L11.3717 0.216681L11.3805 0.215962L11.3717 0.108627ZM6.96786 2.59398L6.91402 2.68725L6.96786 2.71834L7.02171 2.68725L6.96786 2.59398ZM2.57885 0.107809L2.57574 0.215458L2.57885 0.215544L2.58195 0.215458L2.57885 0.107809ZM0.112452 1.6314L0.218314 1.65116L0.219628 1.64412L0.219998 1.63696L0.112452 1.6314ZM0.110906 11.6516L0.218387 11.6584L0.219119 11.6468L0.217366 11.6354L0.110906 11.6516ZM2.599 13.2057L2.61051 13.0987L2.599 13.0975L2.58748 13.0987L2.599 13.2057ZM5.05327 11.8038L4.96311 11.7449L4.96078 11.7485L4.95876 11.7522L5.05327 11.8038ZM5.09867 6.87348L5.15252 6.78022L4.99098 6.68692V6.87348H5.09867ZM7.03782 7.93585L7.04661 7.8285L7.03778 7.82781L7.02899 7.8285L7.03782 7.93585ZM8.91524 6.90907H9.02294V6.72254L8.8614 6.8158L8.91524 6.90907ZM8.92597 11.728L9.03129 11.7054L9.03052 11.7019L9.02953 11.6984L8.92597 11.728ZM11.405 13.2061L11.4153 13.0989L11.405 13.0979L11.3948 13.0989L11.405 13.2061ZM13.8896 11.6485L13.7829 11.6334L13.7813 11.6449L13.7822 11.6565L13.8896 11.6485ZM13.786 1.46359L13.7042 1.53367L13.711 1.54159L13.7192 1.54807L13.786 1.46359ZM13.3331 11.5069L13.3869 11.6001L13.4408 11.569V11.5069H13.3331ZM13.3331 1.97093H13.4408V1.78441L13.2792 1.87767L13.3331 1.97093ZM6.9135 5.62994L6.9163 5.52212L6.9107 5.52225L6.9135 5.62994ZM0.666904 2.07082L0.72075 1.97755L0.559212 1.88429V2.07082H0.666904ZM0.666904 11.5065H0.559212V11.5687L0.613058 11.5998L0.666904 11.5065ZM2.34453 12.4751L2.29068 12.5683L2.45222 12.6616V12.4751H2.34453ZM2.42975 4.97715L2.50463 5.05452L2.51156 5.04784L2.51718 5.04L2.42975 4.97715ZM7.03778 7.34729L6.98393 7.44055L7.03778 7.47165L7.09162 7.44055L7.03778 7.34729ZM11.6894 5.06929L11.5853 5.09686L11.5873 5.10423L11.5902 5.11125L11.6894 5.06929ZM11.7114 12.4432H11.6037V12.6297L11.7653 12.5364L11.7114 12.4432ZM9.47447 11.5054H9.36678V11.5676L9.42062 11.5987L9.47447 11.5054ZM11.1522 12.4741L11.0983 12.5673L11.2599 12.6606V12.4741H11.1522ZM9.47279 6.58719L9.41894 6.49393L9.35803 6.52908L9.36574 6.59895L9.47279 6.58719ZM11.1522 5.61758H11.2599V5.43105L11.0983 5.52431L11.1522 5.61758ZM4.53945 11.5017L4.59329 11.5949L4.64714 11.5638V11.5017H4.53945ZM4.54664 6.55476L4.65158 6.57905L4.66954 6.50139L4.60049 6.4615L4.54664 6.55476ZM2.90374 5.60625L2.95759 5.51299L2.79605 5.41972V5.60625H2.90374ZM2.90374 12.446H2.79605V12.6326L2.95759 12.5393L2.90374 12.446ZM6.9135 5.03156L6.85966 5.12482L6.9135 5.15592L6.96735 5.12482L6.9135 5.03156ZM12.8963 1.57739L12.9502 1.67066L13.1117 1.57739L12.9502 1.48413L12.8963 1.57739ZM0.999871 1.61733L0.946025 1.52407L0.784487 1.61733L0.946025 1.71059L0.999871 1.61733ZM2.57885 0.705708L2.63269 0.612442L2.57885 0.581353L2.525 0.612442L2.57885 0.705708ZM6.96786 3.18252L6.97665 3.07519L6.96786 3.07447L6.95908 3.07519L6.96786 3.18252ZM11.3717 0.697157L11.4256 0.603891L11.3717 0.572803L11.3179 0.603891L11.3717 0.697157ZM11.2631 0.238465C11.2947 0.22024 11.3293 0.213209 11.3629 0.215962L11.3805 0.00129763C11.3047 -0.00492268 11.2261 0.0111192 11.1554 0.0519346L11.2631 0.238465ZM7.02171 2.68725L11.2631 0.238465L11.1554 0.0519346L6.91402 2.50072L7.02171 2.68725ZM2.6726 0.238465L6.91402 2.68725L7.02171 2.50072L2.78029 0.0519346L2.6726 0.238465ZM2.58195 0.215458C2.61261 0.214571 2.64385 0.221864 2.6726 0.238465L2.78029 0.0519346C2.71599 0.0148109 2.64515 -0.00183837 2.57574 0.000160397L2.58195 0.215458ZM2.48509 0.238465C2.51385 0.221864 2.54509 0.214571 2.57574 0.215458L2.58195 0.000160397C2.51254 -0.00183837 2.4417 0.0148109 2.3774 0.0519346L2.48509 0.238465ZM0.305773 1.4967L2.48509 0.238465L2.3774 0.0519346L0.198081 1.31017L0.305773 1.4967ZM0.219998 1.63696C0.222923 1.58039 0.253469 1.52689 0.305773 1.4967L0.198081 1.31017C0.0799349 1.37838 0.0114361 1.49947 0.00490216 1.62584L0.219998 1.63696ZM0.215385 1.68304C0.215385 1.67206 0.216401 1.66141 0.218314 1.65116L0.00658775 1.61163C0.00225206 1.63486 0 1.65873 0 1.68304H0.215385ZM0.215385 11.6091V1.68304H0V11.6091H0.215385ZM0.217366 11.6354C0.21607 11.6269 0.215385 11.6181 0.215385 11.6091H0C0 11.629 0.00151328 11.6486 0.00444855 11.6679L0.217366 11.6354ZM0.30405 11.8184C0.245689 11.7847 0.214377 11.7218 0.218387 11.6584L0.00343022 11.6448C-0.00554572 11.7868 0.064434 11.9287 0.196358 12.0049L0.30405 11.8184ZM2.48337 13.0766L0.30405 11.8184L0.196358 12.0049L2.37568 13.2631L2.48337 13.0766ZM2.58748 13.0987C2.55254 13.1025 2.51627 13.0956 2.48337 13.0766L2.37568 13.2631C2.44944 13.3057 2.5317 13.3213 2.61051 13.3128L2.58748 13.0987ZM2.71462 13.0766C2.68172 13.0956 2.64545 13.1025 2.61051 13.0987L2.58748 13.3128C2.66629 13.3213 2.74855 13.3057 2.82231 13.2631L2.71462 13.0766ZM4.89393 11.8184L2.71462 13.0766L2.82231 13.2631L5.00162 12.0049L4.89393 11.8184ZM4.95876 11.7522C4.9442 11.7788 4.9224 11.8019 4.89393 11.8184L5.00162 12.0049C5.06529 11.9681 5.11478 11.9158 5.14778 11.8554L4.95876 11.7522ZM4.99098 11.651C4.99098 11.6859 4.98073 11.718 4.96311 11.7449L5.14343 11.8627C5.18323 11.8018 5.20636 11.7289 5.20636 11.651H4.99098ZM4.99098 6.87348V11.651H5.20636V6.87348H4.99098ZM6.92927 7.80601L5.15252 6.78022L5.04482 6.96675L6.82158 7.99254L6.92927 7.80601ZM7.02899 7.8285C6.99543 7.83126 6.9608 7.82423 6.92927 7.80601L6.82158 7.99254C6.89226 8.03337 6.97079 8.0494 7.04661 8.04319L7.02899 7.8285ZM7.14633 7.80601C7.11476 7.82423 7.08017 7.83126 7.04661 7.8285L7.02903 8.04319C7.10481 8.0494 7.18334 8.03333 7.25402 7.99254L7.14633 7.80601ZM8.8614 6.8158L7.14633 7.80601L7.25402 7.99254L8.96909 7.00233L8.8614 6.8158ZM9.02294 11.651V6.90907H8.80755V11.651H9.02294ZM9.02953 11.6984C9.02526 11.6835 9.02294 11.6676 9.02294 11.651H8.80755C8.80755 11.6878 8.81272 11.7236 8.82241 11.7576L9.02953 11.6984ZM9.11344 11.8184C9.06959 11.793 9.04116 11.7515 9.03129 11.7054L8.82069 11.7506C8.84279 11.8537 8.90697 11.9479 9.00575 12.0049L9.11344 11.8184ZM11.2927 13.0766L9.11344 11.8184L9.00575 12.0049L11.1851 13.2631L11.2927 13.0766ZM11.3948 13.0989C11.3605 13.1022 11.325 13.0952 11.2927 13.0766L11.1851 13.2631C11.2574 13.3049 11.3378 13.3207 11.4153 13.3133L11.3948 13.0989ZM11.5173 13.0766C11.485 13.0952 11.4495 13.1022 11.4153 13.0989L11.3948 13.3133C11.4722 13.3207 11.5527 13.3049 11.625 13.2631L11.5173 13.0766ZM13.6967 11.8184L11.5173 13.0766L11.625 13.2631L13.8043 12.0049L13.6967 11.8184ZM13.7822 11.6565C13.7869 11.7205 13.7556 11.7843 13.6967 11.8184L13.8043 12.0049C13.9376 11.928 14.0077 11.7839 13.9969 11.6405L13.7822 11.6565ZM13.7846 11.6091C13.7846 11.6174 13.7841 11.6256 13.7829 11.6334L13.9962 11.6635C13.9987 11.6457 14 11.6275 14 11.6091H13.7846ZM13.7846 1.68304V11.6091H14V1.68304H13.7846ZM13.7192 1.54807C13.7592 1.57973 13.7846 1.62839 13.7846 1.68304H14C14 1.55975 13.9423 1.44988 13.8528 1.37913L13.7192 1.54807ZM13.6596 1.4967C13.6771 1.50681 13.692 1.51939 13.7042 1.53367L13.8678 1.39353C13.8399 1.36099 13.8062 1.33264 13.7673 1.31017L13.6596 1.4967ZM11.4803 0.238465L13.6596 1.4967L13.7673 1.31017L11.588 0.0519346L11.4803 0.238465ZM11.3805 0.215962C11.414 0.213209 11.4487 0.22024 11.4803 0.238465L11.588 0.0519346C11.5173 0.0111192 11.4387 -0.00491837 11.3629 0.00129763L11.3805 0.215962ZM13.4408 11.5069V1.97093H13.2254V11.5069H13.4408ZM13.2792 1.87767L7.0065 5.49924L7.1142 5.68577L13.3869 2.0642L13.2792 1.87767ZM7.0065 5.49924C6.9779 5.51574 6.9468 5.52294 6.9163 5.52212L6.9107 5.73759C6.97975 5.7394 7.05023 5.72273 7.1142 5.68577L7.0065 5.49924ZM6.9107 5.52225C6.8802 5.52307 6.8491 5.51574 6.8205 5.49924L6.71281 5.68577C6.77678 5.72273 6.84725 5.7394 6.9163 5.73759L6.9107 5.52225ZM6.8205 5.49924L0.72075 1.97755L0.613058 2.16408L6.71281 5.68577L6.8205 5.49924ZM0.559212 2.07082V11.5065H0.774596V2.07082H0.559212ZM0.613058 11.5998L2.29068 12.5683L2.39837 12.3818L0.72075 11.4132L0.613058 11.5998ZM2.45222 12.4751V5.17811H2.23683V12.4751H2.45222ZM2.45222 5.17811C2.45222 5.1296 2.47218 5.08592 2.50463 5.05452L2.35488 4.89974C2.28222 4.97 2.23683 5.06886 2.23683 5.17811H2.45222ZM2.51718 5.04C2.56805 4.96927 2.66543 4.94726 2.74253 4.9918L2.85022 4.80527C2.67635 4.70486 2.45713 4.75462 2.34232 4.91426L2.51718 5.04ZM2.74253 4.9918L6.98393 7.44055L7.09162 7.25403L2.85022 4.80527L2.74253 4.9918ZM7.09162 7.44055L11.3331 4.9918L11.2254 4.80527L6.98393 7.25403L7.09162 7.44055ZM11.3331 4.9918C11.4153 4.94433 11.5204 4.9725 11.5679 5.05473L11.7544 4.94704C11.6475 4.76177 11.4106 4.69831 11.2254 4.80527L11.3331 4.9918ZM11.5679 5.05473C11.5758 5.06839 11.5815 5.08252 11.5853 5.09686L11.7936 5.04177C11.7849 5.0092 11.7719 4.97737 11.7544 4.94704L11.5679 5.05473ZM11.5902 5.11125C11.5989 5.13167 11.6037 5.1542 11.6037 5.17811H11.8191C11.8191 5.12486 11.8083 5.07382 11.7886 5.02734L11.5902 5.11125ZM11.6037 5.17811V12.4432H11.8191V5.17811H11.6037ZM11.7653 12.5364L13.3869 11.6001L13.2792 11.4136L11.6576 12.3499L11.7653 12.5364ZM9.42062 11.5987L11.0983 12.5673L11.206 12.3808L9.52831 11.4122L9.42062 11.5987ZM9.36678 6.61808V11.5054H9.58216V6.61808H9.36678ZM9.36574 6.59895C9.36643 6.6052 9.36678 6.61162 9.36678 6.61808H9.58216C9.58216 6.60369 9.58138 6.58948 9.57983 6.57543L9.36574 6.59895ZM11.0983 5.52431L9.41894 6.49393L9.52663 6.68046L11.206 5.71084L11.0983 5.52431ZM11.2599 12.4741V5.61758H11.0445V12.4741H11.2599ZM4.43175 6.61808V11.5017H4.64714V6.61808H4.43175ZM4.44175 6.53046C4.4352 6.55872 4.43175 6.5881 4.43175 6.61808H4.64714C4.64714 6.60455 4.64869 6.5915 4.65158 6.57905L4.44175 6.53046ZM2.8499 5.69951L4.49279 6.64802L4.60049 6.4615L2.95759 5.51299L2.8499 5.69951ZM3.01143 12.446V5.60625H2.79605V12.446H3.01143ZM4.4856 11.4084L2.8499 12.3528L2.95759 12.5393L4.59329 11.5949L4.4856 11.4084ZM6.96735 5.12482L12.9502 1.67066L12.8425 1.48413L6.85966 4.9383L6.96735 5.12482ZM0.946025 1.71059L6.85966 5.12482L6.96735 4.9383L1.05372 1.52407L0.946025 1.71059ZM2.525 0.612442L0.946025 1.52407L1.05372 1.71059L2.63269 0.798974L2.525 0.612442ZM6.85931 3.05269L2.63269 0.612442L2.525 0.798974L6.75162 3.23921L6.85931 3.05269ZM6.95908 3.07519C6.92552 3.07795 6.89089 3.07091 6.85931 3.05269L6.75162 3.23921C6.82231 3.28005 6.90084 3.29607 6.97665 3.28987L6.95908 3.07519ZM7.07638 3.05269C7.04484 3.07091 7.01021 3.07795 6.97665 3.07519L6.95908 3.28987C7.03489 3.29607 7.11342 3.28005 7.18407 3.23921L7.07638 3.05269ZM11.3179 0.603891L7.07638 3.05269L7.18407 3.23921L11.4256 0.790419L11.3179 0.603891ZM12.9502 1.48413L11.4256 0.603891L11.3179 0.790419L12.8425 1.67066L12.9502 1.48413Z" fill="var(--fill-0, black)"/>
</g>
</svg>
