<svg preserveAspectRatio="none" width="100%" height="100%" overflow="visible" style="display: block;" viewBox="0 0 12 14" fill="none" xmlns="http://www.w3.org/2000/svg">
<g id="Logo">
<path id="Vector" d="M3.37086 13.5256L3.6135 11.9844L3.07302 11.9719H0.49218L2.28573 0.599626C2.2913 0.565295 2.30939 0.533284 2.33584 0.510551C2.36228 0.487819 2.39615 0.475293 2.4314 0.475293H6.78308C8.22775 0.475293 9.22473 0.775919 9.74526 1.36928C9.98929 1.64764 10.1447 1.93853 10.2199 2.25864C10.2987 2.59452 10.3001 2.99582 10.2231 3.48527L10.2175 3.52099V3.8346L10.4616 3.97286C10.6671 4.08188 10.8304 4.20668 10.9557 4.34957C11.1644 4.58756 11.2994 4.89004 11.3565 5.24866C11.4154 5.61748 11.3959 6.05636 11.2994 6.55323C11.1881 7.12479 11.0081 7.62258 10.765 8.02991C10.5414 8.40523 10.2565 8.71653 9.91831 8.95777C9.59541 9.18695 9.21174 9.36093 8.77797 9.47227C8.35765 9.58176 7.87841 9.63696 7.35278 9.63696H7.01411C6.77194 9.63696 6.53673 9.72418 6.35208 9.88053C6.16698 10.0401 6.0445 10.2582 6.00692 10.4966L5.9814 10.6353L5.55273 13.3516L5.53325 13.4514C5.52815 13.4829 5.51933 13.4987 5.50634 13.5094C5.49474 13.5191 5.47804 13.5256 5.4618 13.5256H3.37086Z" fill="var(--fill-0, #253B80)"/>
<path id="Vector_2" d="M10.6926 3.55696C10.6796 3.64 10.6648 3.7249 10.6481 3.81212C10.0742 6.75854 8.11086 7.7764 5.60332 7.7764H4.3266C4.01994 7.7764 3.76154 7.99909 3.71375 8.30157L3.06007 12.4472L2.87497 13.6224C2.84388 13.8209 2.99698 14 3.1974 14H5.46183C5.72998 14 5.95777 13.8052 5.99998 13.5407L6.02225 13.4257L6.4486 10.72L6.47598 10.5716C6.51773 10.3062 6.74598 10.1114 7.01413 10.1114H7.3528C9.54672 10.1114 11.2642 9.22061 11.7662 6.64302C11.9759 5.56624 11.8673 4.66715 11.3124 4.03481C11.1445 3.84413 10.9362 3.68593 10.6926 3.55696Z" fill="var(--fill-0, #179BD7)"/>
<path id="Vector_3" d="M10.0923 3.31757C10.0046 3.29205 9.91418 3.26886 9.82139 3.24798C9.72814 3.22757 9.63257 3.20947 9.53422 3.1937C9.18998 3.13803 8.81281 3.11158 8.40873 3.11158H4.99792C4.91395 3.11158 4.83415 3.1306 4.76271 3.16494C4.60543 3.24056 4.48853 3.38948 4.46023 3.5718L3.73464 8.16747L3.71376 8.30155C3.76155 7.99906 4.01996 7.77638 4.32661 7.77638H5.60335C8.11088 7.77638 10.0742 6.75805 10.6481 3.81212C10.6653 3.7249 10.6797 3.64 10.6927 3.55696C10.5474 3.47994 10.3902 3.41407 10.2208 3.35793C10.1791 3.34401 10.1359 3.33056 10.0923 3.31757Z" fill="var(--fill-0, #222D65)"/>
<path id="Vector_4" d="M4.46021 3.57179C4.48851 3.38947 4.60542 3.24055 4.7627 3.16539C4.83461 3.13106 4.91394 3.11204 4.99791 3.11204H8.40872C8.8128 3.11204 9.18998 3.13848 9.53421 3.19415C9.63256 3.20993 9.72813 3.22802 9.82138 3.24843C9.91417 3.26931 10.0046 3.29251 10.0923 3.31802C10.1359 3.33101 10.1791 3.34447 10.2213 3.35792C10.3906 3.41406 10.5479 3.4804 10.6931 3.55695C10.8638 2.4681 10.6917 1.72674 10.103 1.05544C9.45395 0.3164 8.28253 0 6.78357 0H2.43191C2.12572 0 1.86453 0.222686 1.81721 0.525632L0.00463411 12.0148C-0.0310885 12.2422 0.144277 12.4472 0.373458 12.4472H3.06007L3.73463 8.16747L4.46021 3.57179Z" fill="var(--fill-0, #253B80)"/>
</g>
</svg>
