<svg preserveAspectRatio="none" width="100%" height="100%" overflow="visible" style="display: block;" viewBox="0 0 14 14" fill="none" xmlns="http://www.w3.org/2000/svg">
<g id="g14">
<path id="path4" d="M12.7374 0H1.2679C0.567638 0 0 0.567424 0 1.26742V12.7273C0 13.4326 0.567638 14 1.2679 14H12.7321C13.4323 14 14 13.4326 14 12.7326V1.26742C14.0053 0.567424 13.4376 0 12.7374 0Z" fill="var(--fill-0, #FF3366)"/>
<g id="g12">
<path id="path8" d="M4.6787 4.40682C5.14536 4.40682 5.53248 4.04091 5.53248 3.56364C5.53248 3.08637 5.14006 2.72046 4.6787 2.72046C4.21203 2.72046 3.82491 3.08637 3.82491 3.56364C3.82491 4.04091 4.21733 4.40682 4.6787 4.40682V4.40682Z" fill="var(--fill-0, white)"/>
<path id="path10" d="M2.90718 8.9197C2.85943 9.13182 2.83291 9.36516 2.83291 9.55076C2.83291 10.2932 3.23609 10.7864 4.0902 10.7864C4.80107 10.7864 5.37401 10.3674 5.78781 9.68334L5.53317 10.6962H6.9443L7.75067 7.46667C7.95226 6.65 8.33952 6.22576 8.93369 6.22576C9.40053 6.22576 9.687 6.51743 9.687 6.9947C9.687 7.13258 9.67639 7.28637 9.62334 7.44546L9.20955 8.93031C9.14589 9.14243 9.11936 9.35985 9.11936 9.56137C9.11936 10.2667 9.53316 10.7811 10.4032 10.7811C11.1459 10.7811 11.7347 10.3038 12.0637 9.15834L11.5119 8.94622C11.2361 9.71516 10.9973 9.85304 10.8064 9.85304C10.6154 9.85304 10.5146 9.72576 10.5146 9.47652C10.5146 9.36516 10.5411 9.23788 10.5782 9.0841L10.9814 7.63637C11.0822 7.29697 11.1194 6.9947 11.1194 6.71894C11.1194 5.63713 10.4668 5.075 9.67109 5.075C8.92838 5.075 8.17507 5.74319 7.79841 6.44849L8.07427 5.18637H5.92043L5.61805 6.3H6.626L6.00531 8.78182C5.51725 9.86364 4.62601 9.87955 4.5146 9.85834C4.32892 9.81591 4.21221 9.74697 4.21221 9.50834C4.21221 9.37046 4.23874 9.17425 4.3024 8.93031L5.24669 5.18637H2.85413L2.55174 6.3H3.54378L2.90718 8.9197Z" fill="var(--fill-0, white)"/>
</g>
</g>
</svg>
