<svg preserveAspectRatio="none" width="100%" height="100%" overflow="visible" style="display: block;" viewBox="0 0 10 6" fill="none" xmlns="http://www.w3.org/2000/svg">
<g id="Group">
<path id="Vector" d="M2.82035 0C4.37799 0 5.6406 1.27143 5.6406 2.8397C5.6406 4.40798 4.37789 5.67931 2.82035 5.67931C1.2628 5.67931 0 4.40798 0 2.8397C0 1.27143 1.26271 0 2.82035 0ZM7.32424 0.166342C8.10306 0.166342 8.73442 1.36313 8.73442 2.8397H8.73451C8.73451 4.3159 8.10316 5.51306 7.32434 5.51306C6.54552 5.51306 5.91416 4.3159 5.91416 2.8397C5.91416 1.36351 6.54542 0.166342 7.32424 0.166342ZM9.50404 0.444794C9.77789 0.444794 10 1.51701 10 2.8397C10 4.16201 9.77799 5.23461 9.50404 5.23461C9.23009 5.23461 9.00817 4.1623 9.00817 2.8397C9.00817 1.51711 9.23019 0.444794 9.50404 0.444794Z" fill="var(--fill-0, white)"/>
</g>
</svg>
