<svg preserveAspectRatio="none" width="100%" height="100%" overflow="visible" style="display: block;" viewBox="0 0 16 16" fill="none" xmlns="http://www.w3.org/2000/svg">
<g id="flag">
<path id="Vector" d="M12.0133 8.22L11.1999 7.40667C11.0066 7.24 10.8933 6.99333 10.8866 6.72C10.8733 6.42 10.9933 6.12 11.2133 5.9L12.0133 5.1C12.7066 4.40667 12.9666 3.74 12.7466 3.21333C12.5333 2.69333 11.8733 2.40667 10.8999 2.40667H3.93327V1.83333C3.93327 1.56 3.7066 1.33333 3.43327 1.33333C3.15993 1.33333 2.93327 1.56 2.93327 1.83333V14.1667C2.93327 14.44 3.15993 14.6667 3.43327 14.6667C3.7066 14.6667 3.93327 14.44 3.93327 14.1667V10.9133H10.8999C11.8599 10.9133 12.5066 10.62 12.7266 10.0933C12.9466 9.56667 12.6933 8.90667 12.0133 8.22Z" fill="var(--fill-0, #ED1C24)"/>
<g id="Vector_2" opacity="0">
</g>
</g>
</svg>
