<svg preserveAspectRatio="none" width="100%" height="100%" overflow="visible" style="display: block;" viewBox="0 0 14 14" fill="none" xmlns="http://www.w3.org/2000/svg">
<g id="Logo">
<path id="Vector" d="M0 7.00011C0 9.8665 1.72364 12.329 4.1901 13.4116C4.17041 12.9228 4.1866 12.336 4.31195 11.8042C4.44653 11.2359 5.21265 7.98984 5.21265 7.98984C5.21265 7.98984 4.98903 7.54288 4.98903 6.88231C4.98903 5.84495 5.59027 5.07019 6.33905 5.07019C6.97577 5.07019 7.28339 5.54843 7.28339 6.12112C7.28339 6.76118 6.87515 7.71859 6.6652 8.60535C6.48982 9.3479 7.03752 9.95356 7.77005 9.95356C9.09634 9.95356 9.9896 8.2501 9.9896 6.2318C9.9896 4.6976 8.95628 3.54927 7.07684 3.54927C4.95343 3.54927 3.63059 5.1328 3.63059 6.90162C3.63059 7.51149 3.81041 7.94156 4.09205 8.2746C4.22155 8.42756 4.23954 8.48909 4.19267 8.66474C4.15909 8.79353 4.08198 9.10361 4.05005 9.22649C4.00345 9.40379 3.85979 9.46717 3.69955 9.40171C2.72152 9.00244 2.26603 7.93138 2.26603 6.72738C2.26603 4.73889 3.94308 2.35452 7.26895 2.35452C9.94153 2.35452 11.7006 4.28848 11.7006 6.36448C11.7006 9.1105 10.1739 11.162 7.92351 11.162C7.16778 11.162 6.4569 10.7535 6.21337 10.2895C6.21337 10.2895 5.80699 11.9023 5.72091 12.2137C5.57249 12.7535 5.28199 13.2929 5.01637 13.7133C5.64594 13.8992 6.31099 14.0004 7.00027 14.0004C10.8658 14.0004 14.0001 10.8663 14.0001 7.00011C14.0001 3.13409 10.8658 0 7.00027 0C3.13436 0 0 3.13409 0 7.00011Z" fill="var(--fill-0, #CB1F27)"/>
</g>
</svg>
