<svg preserveAspectRatio="none" width="100%" height="100%" overflow="visible" style="display: block;" viewBox="0 0 14 14" fill="none" xmlns="http://www.w3.org/2000/svg">
<g id="Logo">
<path id="Vector" d="M7.00003 14C10.866 14 14 10.866 14 7.00003C14 3.13404 10.866 3.05176e-05 7.00003 3.05176e-05C3.13404 3.05176e-05 3.05176e-05 3.13404 3.05176e-05 7.00003C3.05176e-05 10.866 3.13404 14 7.00003 14Z" fill="var(--fill-0, #3C5A9A)"/>
<path id="Vector_2" d="M9.27611 2.14862H7.72544C6.80522 2.14862 5.78167 2.53565 5.78167 3.86955C5.78616 4.33433 5.78167 4.77946 5.78167 5.28041H4.7171V6.97446H5.81462V11.8513H7.83135V6.94228H9.16247L9.28291 5.27566H7.7966C7.7966 5.27566 7.79993 4.53428 7.7966 4.31898C7.7966 3.79185 8.3451 3.82204 8.37809 3.82204C8.6391 3.82204 9.14659 3.8228 9.27687 3.82204V2.14862H9.27611V2.14862Z" fill="var(--fill-0, white)"/>
</g>
</svg>
