<svg preserveAspectRatio="none" width="100%" height="100%" overflow="visible" style="display: block;" viewBox="0 0 16 16" fill="none" xmlns="http://www.w3.org/2000/svg">
<g id="Frame 13">
<path id="Union" d="M8.07073 1.85382C8.32292 1.68724 8.66596 1.71498 8.88811 1.93683L15.4203 8.46906C15.6737 8.72285 15.6738 9.13428 15.4203 9.388C15.1666 9.64171 14.7553 9.64144 14.5014 9.388L13.433 8.31964V14.5892C13.4329 14.9481 13.1416 15.2396 12.7826 15.2396H4.07366C3.71482 15.2395 3.42338 14.948 3.42327 14.5892V8.32062L2.35686 9.388C2.10315 9.64171 1.69081 9.64146 1.43694 9.388C1.18348 9.13419 1.18338 8.7228 1.43694 8.46906L3.60882 6.2962C3.61204 6.29291 3.6153 6.28966 3.61858 6.28644L7.96917 1.93683L8.07073 1.85382ZM4.72405 7.01984V13.9398H12.1332V7.01984L8.42815 3.31574L4.72405 7.01984Z" fill="var(--fill-0, #5F6368)"/>
</g>
</svg>
