<svg preserveAspectRatio="none" width="100%" height="100%" overflow="visible" style="display: block;" viewBox="0 0 20 20" fill="none" xmlns="http://www.w3.org/2000/svg">
<g id="Icon">
<path id="Vector" d="M18.1178 9.46463L16.601 7.94947L10.5336 1.8888C10.3914 1.74678 10.1985 1.66699 9.9974 1.66699C9.79629 1.66699 9.60342 1.74678 9.46119 1.8888L3.39381 7.94947L1.87696 9.46463C1.73881 9.60751 1.66236 9.79888 1.66409 9.99752C1.66582 10.1962 1.74558 10.3862 1.8862 10.5266C2.02682 10.6671 2.21704 10.7468 2.4159 10.7485C2.61475 10.7502 2.80633 10.6739 2.94937 10.5359L3.17159 10.3139V17.5761C3.17159 17.777 3.25149 17.9697 3.39373 18.1118C3.53596 18.2538 3.72887 18.3337 3.93001 18.3337H16.0648C16.2659 18.3337 16.4588 18.2538 16.6011 18.1118C16.7433 17.9697 16.8232 17.777 16.8232 17.5761V10.3139L17.0454 10.5359C17.1885 10.6739 17.38 10.7502 17.5789 10.7485C17.7778 10.7468 17.968 10.6671 18.1086 10.5266C18.2492 10.3862 18.329 10.1962 18.3307 9.99752C18.3324 9.79888 18.256 9.60751 18.1178 9.46463ZM15.3064 16.8185H4.68843V8.79872L9.9974 3.49564L15.3064 8.79872V16.8185Z" fill="var(--fill-0, #646464)"/>
</g>
</svg>
