<svg preserveAspectRatio="none" width="100%" height="100%" overflow="visible" style="display: block;" viewBox="0 0 14 13" fill="none" xmlns="http://www.w3.org/2000/svg">
<g id="sketch-symbol">
<path id="Path" d="M3.05454 0.417115L7 0L10.9454 0.417115L14 4.51757L7 12.669L0 4.51757L3.05454 0.417115Z" fill="var(--fill-0, #FDB300)"/>
<g id="Group">
<path id="Path_2" d="M2.83535 4.51757L7 12.669L0 4.51757H2.83535Z" fill="var(--fill-0, #EA6C00)"/>
<path id="Path_3" d="M11.1646 4.51757L6.99998 12.669L14 4.51757H11.1646Z" fill="var(--fill-0, #EA6C00)"/>
<path id="Path_4" d="M2.83535 4.51757H11.1647L7 12.669L2.83535 4.51757Z" fill="var(--fill-0, #FDAD00)"/>
</g>
<g id="Group_2">
<path id="Path_5" d="M7 0L3.05453 0.41711L2.83535 4.51757L7 0Z" fill="var(--fill-0, #FDD231)"/>
<path id="Path_6" d="M6.99998 0L10.9455 0.41711L11.1646 4.51757L6.99998 0Z" fill="var(--fill-0, #FDD231)"/>
<path id="Path_7" d="M14 4.51757L10.9454 0.417109L11.1647 4.51757H14Z" fill="var(--fill-0, #FDAD00)"/>
<path id="Path_8" d="M0 4.51757L3.05453 0.417109L2.83535 4.51757H0Z" fill="var(--fill-0, #FDAD00)"/>
<path id="Path_9" d="M7 0L2.83535 4.51757H11.1647L7 0Z" fill="var(--fill-0, #FEEEB7)"/>
</g>
</g>
</svg>
