<svg preserveAspectRatio="none" width="100%" height="100%" overflow="visible" style="display: block;" viewBox="0 0 24 24" fill="none" xmlns="http://www.w3.org/2000/svg">
<g id="asset-icon">
<path id="Vector" fill-rule="evenodd" clip-rule="evenodd" d="M5 3H19L8.816 13.184C8.65173 12.7625 8.38421 12.3891 8.038 12.098C7.81 11.9 7.491 11.721 6.855 11.362L3.942 9.722C2.993 9.189 2.519 8.922 2.26 8.492C2 8.061 2 7.541 2 6.503V5.813C2 4.487 2 3.823 2.44 3.411C2.878 3 3.585 3 5 3Z" fill="var(--fill-0, white)"/>
<path id="Vector_2" opacity="0.5" d="M21.9995 6.504V5.814C21.9995 4.488 21.9995 3.824 21.5595 3.412C21.1215 3 20.4145 3 18.9995 3L8.81445 13.184C8.86445 13.3127 8.90479 13.447 8.93545 13.587C8.99945 13.872 8.99945 14.206 8.99945 14.873V17.543C8.99945 18.452 8.99945 18.907 9.25145 19.261C9.50345 19.616 9.95145 19.791 10.8455 20.141C12.7245 20.875 13.6635 21.242 14.3315 20.824C14.9995 20.406 14.9995 19.452 14.9995 17.542V14.872C14.9995 14.206 14.9995 13.872 15.0625 13.587C15.1883 13.004 15.505 12.4797 15.9625 12.097C16.1895 11.9 16.5075 11.721 17.1445 11.362L20.0575 9.722C21.0055 9.189 21.4805 8.922 21.7395 8.492C21.9995 8.062 21.9995 7.542 21.9995 6.504Z" fill="var(--fill-0, white)"/>
</g>
</svg>
