<svg preserveAspectRatio="none" width="100%" height="100%" overflow="visible" style="display: block;" viewBox="0 0 14 14" fill="none" xmlns="http://www.w3.org/2000/svg">
<g id="Logo">
<path id="Vector" d="M14 7C14 10.8658 10.8658 14 7 14C3.13422 14 0 10.8658 0 7C0 3.13422 3.13422 0 7 0C10.8666 0 14 3.13422 14 7Z" fill="var(--fill-0, #2081E2)"/>
<path id="Vector_2" d="M3.4535 7.23521L3.4837 7.18774L5.30468 4.33905C5.33129 4.29734 5.39386 4.30165 5.41399 4.34696C5.71821 5.02874 5.98071 5.87667 5.85773 6.40455C5.80523 6.62175 5.6614 6.91589 5.49957 7.18774C5.47872 7.2273 5.45571 7.26614 5.43125 7.30353C5.41974 7.32079 5.40032 7.33086 5.37946 7.33086H3.50671C3.45637 7.33086 3.42688 7.2762 3.4535 7.23521Z" fill="var(--fill-0, white)"/>
<path id="Vector_3" d="M11.5702 7.76454V8.21547C11.5702 8.24136 11.5544 8.26437 11.5314 8.27444C11.3904 8.33485 10.9079 8.55636 10.7072 8.8354C10.1951 9.54812 9.80391 10.5672 8.92937 10.5672H5.28094C3.98786 10.5672 2.94 9.51576 2.94 8.21834V8.17663C2.94 8.14211 2.96804 8.11407 3.00257 8.11407H5.03643C5.0767 8.11407 5.10618 8.15146 5.1026 8.19101C5.0882 8.32334 5.11266 8.45855 5.17523 8.58153C5.29605 8.82678 5.54633 8.97997 5.81674 8.97997H6.8236V8.1939H5.82824C5.77719 8.1939 5.74699 8.13491 5.77647 8.09321C5.78725 8.07666 5.79949 8.05941 5.81242 8.03999C5.90664 7.90622 6.04113 7.69838 6.1749 7.46177C6.26623 7.30211 6.35469 7.13166 6.42589 6.9605C6.44028 6.92957 6.45178 6.89792 6.46328 6.86699C6.4827 6.81233 6.50285 6.76127 6.51723 6.71022C6.53162 6.66705 6.54311 6.62175 6.55462 6.57932C6.58843 6.43404 6.60281 6.28014 6.60281 6.12048C6.60281 6.05792 6.59994 5.99247 6.59418 5.9299C6.5913 5.86158 6.58268 5.79325 6.57404 5.72493C6.56828 5.66452 6.5575 5.60482 6.546 5.54225C6.53162 5.45092 6.51147 5.36031 6.48846 5.26896L6.48055 5.23445C6.46328 5.17187 6.44891 5.11219 6.42877 5.04962C6.37195 4.85327 6.30651 4.66197 6.23746 4.4829C6.21229 4.4117 6.18352 4.34338 6.15475 4.27506C6.11233 4.17221 6.06917 4.07872 6.02962 3.99026C6.00949 3.94998 5.99223 3.9133 5.97496 3.8759C5.95555 3.83347 5.93541 3.79104 5.91527 3.75077C5.90089 3.71985 5.88434 3.69108 5.87283 3.66231L5.74986 3.43504C5.7326 3.40412 5.76137 3.36744 5.79516 3.37679L6.5647 3.58535H6.56686C6.56828 3.58535 6.56901 3.58607 6.56973 3.58607L6.67113 3.61412L6.78261 3.64577L6.8236 3.65727V3.19987C6.8236 2.97908 7.00052 2.8 7.21916 2.8C7.32847 2.8 7.42772 2.84459 7.49892 2.91722C7.57011 2.98987 7.6147 3.08912 7.6147 3.19987V3.87879L7.6967 3.90179C7.70317 3.90396 7.70963 3.90683 7.71539 3.91114C7.73553 3.92625 7.76429 3.94853 7.80097 3.97588C7.82974 3.99888 7.86067 4.02693 7.89806 4.0557C7.97213 4.11539 8.0606 4.19235 8.15769 4.28081C8.18358 4.3031 8.20875 4.32612 8.23176 4.34913C8.35691 4.46564 8.49715 4.60228 8.63092 4.75331C8.66831 4.79575 8.70499 4.83889 8.74239 4.8842C8.77978 4.93023 8.81934 4.97553 8.85385 5.02085C8.89917 5.08126 8.94807 5.14383 8.99051 5.20928C9.01064 5.2402 9.03366 5.27184 9.05307 5.30277C9.10773 5.38547 9.15592 5.47106 9.20195 5.55665C9.22137 5.5962 9.2415 5.63934 9.25876 5.68178C9.30982 5.79613 9.3501 5.91264 9.37598 6.02915C9.38389 6.05432 9.38965 6.08165 9.39253 6.1061V6.11186C9.40116 6.14637 9.40404 6.18305 9.40691 6.22044C9.41842 6.33983 9.41266 6.45921 9.38678 6.57932C9.37598 6.63039 9.36161 6.67856 9.34434 6.72964C9.32708 6.77854 9.30982 6.82959 9.28753 6.87778C9.24438 6.97774 9.19331 7.07772 9.1329 7.17121C9.11348 7.20573 9.09047 7.24241 9.06745 7.27694C9.04228 7.3136 9.01639 7.34813 8.99338 7.38194C8.96174 7.42509 8.92794 7.47039 8.89342 7.51067C8.86249 7.5531 8.83085 7.59554 8.79633 7.63293C8.74814 7.68974 8.70211 7.74368 8.65392 7.79547C8.62516 7.82927 8.59424 7.86379 8.56258 7.89472C8.53167 7.92923 8.50002 7.96015 8.47125 7.98892C8.42307 8.03711 8.3828 8.0745 8.34899 8.10543L8.26989 8.17807C8.25838 8.18814 8.24327 8.1939 8.22745 8.1939H7.6147V8.97997H8.38567C8.55827 8.97997 8.72225 8.91883 8.85458 8.80663C8.89989 8.76708 9.09766 8.59592 9.33139 8.33773C9.3393 8.32909 9.34938 8.32263 9.36089 8.31976L11.4904 7.70413C11.53 7.69262 11.5702 7.72282 11.5702 7.76454Z" fill="var(--fill-0, white)"/>
</g>
</svg>
