<svg preserveAspectRatio="none" width="100%" height="100%" overflow="visible" style="display: block;" viewBox="0 0 7 10" fill="none" xmlns="http://www.w3.org/2000/svg">
<g id="Group">
<path id="Vector" d="M1.95604 2.57007C1.95604 2.93147 2.05814 3.2136 2.26301 3.41579C2.46721 3.61798 2.73926 3.71942 3.07982 3.71942C3.42373 3.71942 3.69914 3.61731 3.90535 3.41243C4.11224 3.20755 4.21569 2.92475 4.21569 2.56335C4.21569 2.22345 4.11359 1.95073 3.90871 1.74652C3.70518 1.54231 3.43448 1.43954 3.09862 1.43954C2.75067 1.43954 2.47258 1.54366 2.2657 1.74988C2.05948 1.95677 1.95604 2.2295 1.95604 2.57007ZM1.78811 6.62401C1.78811 7.12379 1.91573 7.51272 2.17233 7.79284C2.42825 8.07228 2.74799 8.21268 3.13087 8.21268C3.50568 8.21268 3.81602 8.07833 4.06119 7.80896C4.30637 7.53959 4.42929 7.15133 4.42929 6.64349C4.42929 6.20015 4.30368 5.84413 4.05447 5.57543C3.8046 5.30606 3.48822 5.17172 3.10534 5.17172C2.66201 5.17172 2.33152 5.32487 2.11389 5.63051C1.89692 5.93615 1.78811 6.26732 1.78811 6.62401ZM1.58122 4.3972C1.11236 4.19904 0.771129 3.92698 0.558195 3.58037C0.345262 3.23375 0.238459 2.85422 0.238459 2.4411C0.238459 1.7351 0.48565 1.15203 0.978018 0.691219C1.47039 0.231078 2.17098 0 3.07982 0C3.97924 0 4.67715 0.231078 5.17422 0.691219C5.67129 1.15203 5.91983 1.7351 5.91983 2.4411C5.91983 2.87974 5.80564 3.27002 5.57792 3.61261C5.35021 3.9552 5.02913 4.21583 4.61603 4.3972C5.14064 4.60745 5.54031 4.91578 5.8137 5.32017C6.08641 5.72456 6.22412 6.19209 6.22412 6.72142C6.22412 7.59468 5.94468 8.30538 5.38716 8.85217C4.82963 9.39829 4.08873 9.67169 3.16378 9.67169C2.30264 9.67169 1.58592 9.44532 1.01362 8.99391C0.337873 8.46055 0 7.72835 0 6.79867C0 6.28613 0.126282 5.81658 0.380863 5.38802C0.634771 4.96012 1.03511 4.62895 1.58122 4.3972Z" fill="var(--fill-0, #2C2A29)"/>
</g>
</svg>
