<svg preserveAspectRatio="none" width="100%" height="100%" overflow="visible" style="display: block;" viewBox="0 0 14 14" fill="none" xmlns="http://www.w3.org/2000/svg">
<g id="Logo">
<path id="Vector" d="M0 0.798976V13.201C0 13.6423 0.357691 14 0.798976 14H13.201C13.6423 14 14 13.6423 14 13.201V0.798976C14 0.357691 13.6423 0 13.201 0H0.798976C0.357691 0 0 0.357691 0 0.798976ZM6.38278 3.81718H4.1857C3.96504 3.81718 3.78558 3.99664 3.78558 4.2173V6.33079H1.9524V4.2173C1.9524 2.9859 2.95429 1.984 4.1857 1.984H6.38281L6.38278 3.81718ZM12.0476 9.78269C12.0476 11.0141 11.0457 12.016 9.8143 12.016H7.61719V10.1828H9.8143C10.035 10.1828 10.2144 10.0034 10.2144 9.78269V7.66921H12.0476V9.78269Z" fill="var(--fill-0, #FF1A03)"/>
</g>
</svg>
