<svg preserveAspectRatio="none" width="100%" height="100%" overflow="visible" style="display: block;" viewBox="0 0 10 14" fill="none" xmlns="http://www.w3.org/2000/svg">
<g id="Logo">
<path id="path0_fill" d="M2.33333 13.9999C3.62133 13.9999 4.66666 12.9546 4.66666 11.6666V9.33328H2.33333C1.04533 9.33328 0 10.3786 0 11.6666C0 12.9546 1.04533 13.9999 2.33333 13.9999Z" fill="var(--fill-0, #0ACF83)"/>
<path id="path1_fill" d="M0 7.00006C0 5.71206 1.04533 4.66672 2.33333 4.66672H4.66666V9.33339H2.33333C1.04533 9.33339 0 8.28805 0 7.00006Z" fill="var(--fill-0, #A259FF)"/>
<path id="path1_fill_1_" d="M0 2.33333C0 1.04533 1.04533 0 2.33333 0H4.66666V4.66666H2.33333C1.04533 4.66666 0 3.62133 0 2.33333Z" fill="var(--fill-0, #F24E1E)"/>
<path id="path2_fill" d="M4.66664 0H6.99997C8.28797 0 9.3333 1.04533 9.3333 2.33333C9.3333 3.62133 8.28797 4.66666 6.99997 4.66666H4.66664V0Z" fill="var(--fill-0, #FF7262)"/>
<path id="path3_fill" d="M9.3333 7.00006C9.3333 8.28805 8.28797 9.33339 6.99997 9.33339C5.71197 9.33339 4.66664 8.28805 4.66664 7.00006C4.66664 5.71206 5.71197 4.66672 6.99997 4.66672C8.28797 4.66672 9.3333 5.71206 9.3333 7.00006Z" fill="var(--fill-0, #1ABCFE)"/>
</g>
</svg>
