<svg preserveAspectRatio="none" width="100%" height="100%" overflow="visible" style="display: block;" viewBox="0 0 16 16" fill="none" xmlns="http://www.w3.org/2000/svg">
<g id="Frame 13">
<path id="Union" d="M8.07044 1.85355C8.32263 1.68691 8.66565 1.71468 8.88782 1.93655L15.42 8.46878C15.6737 8.72256 15.6736 9.13391 15.42 9.38773C15.1662 9.64153 14.755 9.64145 14.5011 9.38773L13.4327 8.31937V14.5889C13.4327 14.9479 13.1413 15.2393 12.7824 15.2393H4.07337C3.71459 15.239 3.42298 14.9477 3.42298 14.5889V8.32034L2.35657 9.38773C2.10276 9.64153 1.6905 9.64146 1.43665 9.38773C1.18319 9.13392 1.18308 8.72253 1.43665 8.46878L7.96888 1.93655L8.07044 1.85355ZM4.72376 7.01956V13.9395H12.1329V7.01956L8.42786 3.31546L4.72376 7.01956Z" fill="var(--fill-0, #5F6368)"/>
</g>
</svg>
