<svg preserveAspectRatio="none" width="100%" height="100%" overflow="visible" style="display: block;" viewBox="0 0 20 20" fill="none" xmlns="http://www.w3.org/2000/svg">
<g id="Group">
<g id="Vector">
</g>
<path id="Vector_2" d="M10.0013 1.66602C14.6038 1.66602 18.3346 5.39685 18.3346 9.99935C18.3346 14.6018 14.6038 18.3327 10.0013 18.3327C5.3988 18.3327 1.66797 14.6018 1.66797 9.99935C1.66797 5.39685 5.3988 1.66602 10.0013 1.66602ZM10.0013 4.99935C9.78029 4.99935 9.56833 5.08715 9.41205 5.24343C9.25577 5.39971 9.16797 5.61167 9.16797 5.83268V9.99935C9.16802 10.2203 9.25584 10.4323 9.41214 10.5885L11.9121 13.0885C12.0693 13.2403 12.2798 13.3243 12.4983 13.3224C12.7168 13.3205 12.9258 13.2329 13.0803 13.0784C13.2348 12.9239 13.3225 12.7148 13.3244 12.4963C13.3263 12.2779 13.2423 12.0674 13.0905 11.9102L10.8346 9.65435V5.83268C10.8346 5.61167 10.7468 5.39971 10.5906 5.24343C10.4343 5.08715 10.2223 4.99935 10.0013 4.99935Z" fill="var(--fill-0, white)"/>
</g>
</svg>
