<svg preserveAspectRatio="none" width="100%" height="100%" overflow="visible" style="display: block;" viewBox="0 0 14 14" fill="none" xmlns="http://www.w3.org/2000/svg">
<g id="Logo">
<path id="Vector" d="M11.9291 11.9289H9.85464V8.68029C9.85464 7.90562 9.84081 6.90838 8.77572 6.90838C7.69528 6.90838 7.52998 7.75242 7.52998 8.62389V11.9287H5.45554V5.24819H7.447V6.16115H7.47487C7.67417 5.8204 7.96217 5.54008 8.30817 5.35005C8.65419 5.16 9.04526 5.06739 9.43975 5.08201C11.5423 5.08201 11.9299 6.46497 11.9299 8.26411L11.9291 11.9289ZM3.11489 4.335C2.87681 4.33505 2.64404 4.26449 2.44606 4.13225C2.24806 4 2.09373 3.81203 2.00258 3.59207C1.91142 3.37212 1.88754 3.13008 1.93395 2.89656C1.98035 2.66303 2.09496 2.4485 2.26329 2.2801C2.43162 2.11172 2.64609 1.99703 2.87962 1.95054C3.11312 1.90405 3.35518 1.92785 3.57516 2.01892C3.79515 2.10999 3.98319 2.26426 4.1155 2.4622C4.24781 2.66013 4.31845 2.89288 4.31849 3.13097C4.31852 3.28906 4.28742 3.44561 4.22694 3.59166C4.16648 3.73774 4.07782 3.87046 3.96606 3.98226C3.8543 4.09407 3.7216 4.18277 3.57557 4.24329C3.42951 4.30382 3.27298 4.33498 3.11489 4.335ZM4.15211 11.9289H2.07551V5.24819H4.15211V11.9289ZM12.9633 0.000953495H1.03311C0.762331 -0.00210227 0.501413 0.10247 0.307693 0.291691C0.113976 0.480912 0.00330483 0.739302 0 1.01008V12.9897C0.0031916 13.2606 0.113794 13.5192 0.307505 13.7086C0.501219 13.898 0.762197 14.0028 1.03311 13.9999H12.9633C13.2347 14.0033 13.4964 13.8989 13.6909 13.7094C13.8854 13.52 13.9967 13.2612 14.0005 12.9897V1.00921C13.9966 0.737899 13.8852 0.479218 13.6907 0.290001C13.4962 0.100784 13.2346 -0.00348918 12.9633 8.91465e-05V0.000953495Z" fill="var(--fill-0, #0A66C2)"/>
</g>
</svg>
