<svg preserveAspectRatio="none" width="100%" height="100%" overflow="visible" style="display: block;" viewBox="0 0 14 14" fill="none" xmlns="http://www.w3.org/2000/svg">
<g id="logo">
<path id="Vector" d="M11.6868 11.3029C6.01959 14 2.50248 11.7434 0.251068 10.3728C0.111752 10.2864 -0.125038 10.393 0.0804095 10.629C0.830468 11.5385 3.28857 13.7305 6.4971 13.7305C9.70785 13.7305 11.6179 11.9786 11.8569 11.673C12.0942 11.3699 11.9266 11.2028 11.6867 11.3029H11.6868ZM13.2784 10.4239C13.1262 10.2257 12.353 10.1888 11.8664 10.2486C11.379 10.3066 10.6475 10.6045 10.7111 10.7833C10.7437 10.8503 10.8103 10.8203 11.1451 10.7902C11.4808 10.7567 12.4213 10.638 12.6173 10.8942C12.8142 11.1521 12.3173 12.3809 12.2266 12.5791C12.1389 12.7773 12.2601 12.8284 12.4248 12.6964C12.5872 12.5645 12.8812 12.2228 13.0785 11.7392C13.2745 11.253 13.394 10.5748 13.2783 10.4239H13.2784Z" fill="var(--fill-0, #FF9900)"/>
<path id="Vector_2" fill-rule="evenodd" clip-rule="evenodd" d="M7.87622 5.79949C7.87622 6.50717 7.89409 7.09734 7.53641 7.7258C7.2477 8.2368 6.79039 8.55104 6.27943 8.55104C5.58193 8.55104 5.17572 8.01962 5.17572 7.23531C5.17572 5.68705 6.56297 5.40604 7.87622 5.40604V5.79949ZM9.70801 10.227C9.58792 10.3343 9.41419 10.342 9.27881 10.2704C8.67587 9.76972 8.56854 9.53724 8.23644 9.05946C7.24005 10.0763 6.53491 10.3803 5.24218 10.3803C3.71438 10.3803 2.52381 9.43756 2.52381 7.54954C2.52381 6.07543 3.32352 5.07135 4.46035 4.58086C5.44655 4.14649 6.82361 4.06985 7.87622 3.94982V3.71475C7.87622 3.28296 7.90939 2.77201 7.6565 2.39902C7.43419 2.06433 7.0101 1.92636 6.63707 1.92636C5.94474 1.92636 5.32646 2.28146 5.17572 3.01725C5.14503 3.1808 5.02499 3.34177 4.86149 3.34941L3.09863 3.16039C2.95048 3.12711 2.78699 3.00707 2.82786 2.77965C3.23407 0.643861 5.16291 0 6.88996 0C7.77395 0 8.92871 0.235066 9.62621 0.904454C10.5102 1.72964 10.4259 2.83076 10.4259 4.02898V6.85974C10.4259 7.7105 10.7784 8.08349 11.1105 8.54339C11.2281 8.70688 11.2536 8.90366 11.1054 9.02623C10.735 9.33534 10.0758 9.91022 9.71307 10.2322L9.70796 10.227" fill="var(--fill-0, black)"/>
<path id="Vector_3" d="M11.6868 11.3029C6.01959 14 2.50248 11.7434 0.251068 10.3728C0.111752 10.2864 -0.125038 10.393 0.0804095 10.629C0.830468 11.5385 3.28857 13.7305 6.4971 13.7305C9.70785 13.7305 11.6179 11.9786 11.8569 11.673C12.0942 11.3699 11.9266 11.2028 11.6867 11.3029H11.6868ZM13.2784 10.4239C13.1262 10.2257 12.353 10.1888 11.8664 10.2486C11.379 10.3066 10.6475 10.6045 10.7111 10.7833C10.7437 10.8503 10.8103 10.8203 11.1451 10.7902C11.4808 10.7567 12.4213 10.638 12.6173 10.8942C12.8142 11.1521 12.3173 12.3809 12.2266 12.5791C12.1389 12.7773 12.2601 12.8284 12.4248 12.6964C12.5872 12.5645 12.8812 12.2228 13.0785 11.7392C13.2745 11.253 13.394 10.5748 13.2783 10.4239H13.2784Z" fill="var(--fill-0, #FF9900)"/>
<path id="Vector_4" fill-rule="evenodd" clip-rule="evenodd" d="M7.87622 5.79949C7.87622 6.50717 7.89409 7.09734 7.53641 7.7258C7.2477 8.2368 6.79039 8.55103 6.27943 8.55103C5.58193 8.55103 5.17572 8.01962 5.17572 7.23531C5.17572 5.68705 6.56297 5.40604 7.87622 5.40604V5.79949ZM9.70801 10.227C9.58792 10.3343 9.41419 10.342 9.27881 10.2704C8.67587 9.76972 8.56854 9.53724 8.23644 9.05946C7.24005 10.0763 6.53491 10.3803 5.24218 10.3803C3.71438 10.3803 2.52381 9.43756 2.52381 7.54954C2.52381 6.07543 3.32352 5.07135 4.46035 4.58086C5.44655 4.14649 6.82361 4.06985 7.87622 3.94982V3.71475C7.87622 3.28296 7.90939 2.77201 7.6565 2.39902C7.43419 2.06433 7.0101 1.92636 6.63707 1.92636C5.94474 1.92636 5.32646 2.28146 5.17572 3.01725C5.14503 3.1808 5.02499 3.34177 4.8615 3.34941L3.09863 3.16039C2.95048 3.12711 2.78699 3.00707 2.82786 2.77965C3.23407 0.643862 5.16291 0 6.88996 0C7.77395 0 8.92871 0.235067 9.62621 0.904454C10.5102 1.72964 10.4259 2.83076 10.4259 4.02898V6.85974C10.4259 7.7105 10.7784 8.08349 11.1105 8.54339C11.2281 8.70688 11.2536 8.90366 11.1054 9.02623C10.735 9.33534 10.0758 9.91022 9.71307 10.2322L9.70801 10.227Z" fill="var(--fill-0, black)"/>
</g>
</svg>
