<svg preserveAspectRatio="none" width="100%" height="100%" overflow="visible" style="display: block;" viewBox="0 0 20 20" fill="none" xmlns="http://www.w3.org/2000/svg">
<g id="Icon">
<g id="Vector">
<path d="M13.0908 6.63914H8.9516C8.58678 6.63914 8.29108 6.93481 8.29108 7.29965C8.29108 7.66446 8.58675 7.96017 8.9516 7.96017H13.0908C13.4558 7.96017 13.7513 7.6645 13.7513 7.29965C13.7512 6.93481 13.4556 6.63914 13.0908 6.63914Z" fill="var(--fill-0, #646464)"/>
<path d="M14.6759 9.83155H8.9516C8.58678 9.83155 8.29108 10.1272 8.29108 10.4921C8.29108 10.8569 8.58675 11.1526 8.9516 11.1526H14.6759C15.0408 11.1526 15.3365 10.8569 15.3365 10.4921C15.3365 10.1272 15.0408 9.83155 14.6759 9.83155Z" fill="var(--fill-0, #646464)"/>
<path d="M17.6702 2.5H5.97933C5.61452 2.5 5.31882 2.79567 5.31882 3.16051V9.39121H4.15195C2.78008 9.39121 1.66406 10.5075 1.66406 11.8791V15.5559C1.66406 16.9277 2.78008 18.0437 4.15195 18.0437C4.26423 18.0437 4.37477 18.0363 4.48288 18.0217H15.3805C17.0071 18.0217 18.3307 16.6983 18.3307 15.0715V3.16051C18.3307 2.79567 18.0351 2.5 17.6702 2.5ZM5.31885 15.5559C5.31885 16.1219 4.91351 16.5953 4.37786 16.7007H4.15199V16.7227C3.50843 16.7227 2.98509 16.1992 2.98509 15.5558V11.8791C2.98509 11.2358 3.50866 10.7122 4.15199 10.7122H5.31888L5.31885 15.5559ZM17.0097 15.0715C17.0097 15.9546 16.2638 16.7007 15.3805 16.7007H6.36045C6.539 16.3579 6.63984 15.9684 6.63984 15.5559V3.82099H17.0097V15.0715Z" fill="var(--fill-0, #646464)"/>
<path d="M13.0908 12.826H8.9516C8.58678 12.826 8.29108 13.1217 8.29108 13.4865C8.29108 13.8514 8.58675 14.1471 8.9516 14.1471H13.0908C13.4558 14.1471 13.7513 13.8514 13.7513 13.4865C13.7512 13.1217 13.4556 12.826 13.0908 12.826Z" fill="var(--fill-0, #646464)"/>
</g>
</g>
</svg>
