<svg preserveAspectRatio="none" width="100%" height="100%" overflow="visible" style="display: block;" viewBox="0 0 15 15" fill="none" xmlns="http://www.w3.org/2000/svg">
<path id="Union" d="M6.13574 0C7.26521 0.000239883 8.18066 0.916373 8.18066 2.0459V2.72754H11.2725C11.8247 2.72754 12.2725 3.17525 12.2725 3.72754V6.81836H12.9541C14.0838 6.81836 15 7.73458 15 8.86426C14.9998 9.99376 14.0836 10.9092 12.9541 10.9092H12.2725V14C12.2725 14.5523 11.8247 15 11.2725 15H8.18066V14.3193C8.18066 13.1898 7.26521 12.2737 6.13574 12.2734C5.00607 12.2734 4.08984 13.1897 4.08984 14.3193V15H1C0.447715 15 0 14.5523 0 14V10.9092H0.680664C1.81019 10.9092 2.72632 9.99373 2.72656 8.86426C2.72656 7.73458 1.81034 6.81836 0.680664 6.81836H0V3.72754C0 3.17525 0.447715 2.72754 1 2.72754H4.08984V2.0459C4.08984 0.916225 5.00607 0 6.13574 0Z" fill="var(--fill-0, #5F6368)"/>
</svg>
