<svg preserveAspectRatio="none" width="100%" height="100%" overflow="visible" style="display: block;" viewBox="0 0 17 17" fill="none" xmlns="http://www.w3.org/2000/svg">
<g id="Group">
<path id="Vector" d="M4.79224 0.625C4.79224 0.45924 4.72639 0.300269 4.60918 0.183058C4.49197 0.065848 4.333 0 4.16724 0C4.00148 0 3.84251 0.065848 3.7253 0.183058C3.60809 0.300269 3.54224 0.45924 3.54224 0.625V1.94167C2.34224 2.0375 1.55557 2.2725 0.97724 2.85167C0.398073 3.43 0.163073 4.2175 0.0664062 5.41667H16.6014C16.5047 4.21667 16.2697 3.43 15.6906 2.85167C15.1122 2.2725 14.3247 2.0375 13.1256 1.94083V0.625C13.1256 0.45924 13.0597 0.300269 12.9425 0.183058C12.8253 0.065848 12.6663 0 12.5006 0C12.3348 0 12.1758 0.065848 12.0586 0.183058C11.9414 0.300269 11.8756 0.45924 11.8756 0.625V1.88583C11.3214 1.875 10.6997 1.875 10.0006 1.875H6.66724C5.96807 1.875 5.34641 1.875 4.79224 1.88583V0.625Z" fill="var(--fill-0, white)"/>
<path id="Vector_2" fill-rule="evenodd" clip-rule="evenodd" d="M0 8.54102C0 7.84185 9.31323e-09 7.22018 0.0108333 6.66602H16.6558C16.6667 7.22018 16.6667 7.84185 16.6667 8.54102V10.2077C16.6667 13.3502 16.6667 14.9218 15.69 15.8977C14.7142 16.8743 13.1425 16.8743 10 16.8743H6.66667C3.52417 16.8743 1.9525 16.8743 0.976667 15.8977C-9.93411e-08 14.9218 0 13.3502 0 10.2077V8.54102ZM12.5 10.2077C12.721 10.2077 12.933 10.1199 13.0893 9.9636C13.2455 9.80732 13.3333 9.59536 13.3333 9.37435C13.3333 9.15334 13.2455 8.94137 13.0893 8.78509C12.933 8.62881 12.721 8.54102 12.5 8.54102C12.279 8.54102 12.067 8.62881 11.9107 8.78509C11.7545 8.94137 11.6667 9.15334 11.6667 9.37435C11.6667 9.59536 11.7545 9.80732 11.9107 9.9636C12.067 10.1199 12.279 10.2077 12.5 10.2077ZM12.5 13.541C12.721 13.541 12.933 13.4532 13.0893 13.2969C13.2455 13.1407 13.3333 12.9287 13.3333 12.7077C13.3333 12.4867 13.2455 12.2747 13.0893 12.1184C12.933 11.9621 12.721 11.8743 12.5 11.8743C12.279 11.8743 12.067 11.9621 11.9107 12.1184C11.7545 12.2747 11.6667 12.4867 11.6667 12.7077C11.6667 12.9287 11.7545 13.1407 11.9107 13.2969C12.067 13.4532 12.279 13.541 12.5 13.541ZM9.16667 9.37435C9.16667 9.59536 9.07887 9.80732 8.92259 9.9636C8.76631 10.1199 8.55435 10.2077 8.33333 10.2077C8.11232 10.2077 7.90036 10.1199 7.74408 9.9636C7.5878 9.80732 7.5 9.59536 7.5 9.37435C7.5 9.15334 7.5878 8.94137 7.74408 8.78509C7.90036 8.62881 8.11232 8.54102 8.33333 8.54102C8.55435 8.54102 8.76631 8.62881 8.92259 8.78509C9.07887 8.94137 9.16667 9.15334 9.16667 9.37435ZM9.16667 12.7077C9.16667 12.9287 9.07887 13.1407 8.92259 13.2969C8.76631 13.4532 8.55435 13.541 8.33333 13.541C8.11232 13.541 7.90036 13.4532 7.74408 13.2969C7.5878 13.1407 7.5 12.9287 7.5 12.7077C7.5 12.4867 7.5878 12.2747 7.74408 12.1184C7.90036 11.9621 8.11232 11.8743 8.33333 11.8743C8.55435 11.8743 8.76631 11.9621 8.92259 12.1184C9.07887 12.2747 9.16667 12.4867 9.16667 12.7077ZM4.16667 10.2077C4.38768 10.2077 4.59964 10.1199 4.75592 9.9636C4.9122 9.80732 5 9.59536 5 9.37435C5 9.15334 4.9122 8.94137 4.75592 8.78509C4.59964 8.62881 4.38768 8.54102 4.16667 8.54102C3.94565 8.54102 3.73369 8.62881 3.57741 8.78509C3.42113 8.94137 3.33333 9.15334 3.33333 9.37435C3.33333 9.59536 3.42113 9.80732 3.57741 9.9636C3.73369 10.1199 3.94565 10.2077 4.16667 10.2077ZM4.16667 13.541C4.38768 13.541 4.59964 13.4532 4.75592 13.2969C4.9122 13.1407 5 12.9287 5 12.7077C5 12.4867 4.9122 12.2747 4.75592 12.1184C4.59964 11.9621 4.38768 11.8743 4.16667 11.8743C3.94565 11.8743 3.73369 11.9621 3.57741 12.1184C3.42113 12.2747 3.33333 12.4867 3.33333 12.7077C3.33333 12.9287 3.42113 13.1407 3.57741 13.2969C3.73369 13.4532 3.94565 13.541 4.16667 13.541Z" fill="var(--fill-0, white)"/>
</g>
</svg>
