<svg preserveAspectRatio="none" width="100%" height="100%" overflow="visible" style="display: block;" viewBox="0 0 14 8" fill="none" xmlns="http://www.w3.org/2000/svg">
<path id="Vector" d="M5.66201 7.33747C5.59525 7.27225 5.5389 7.20149 5.48989 7.12705L0.3742 2.14685C-0.124655 1.661 -0.124891 0.872766 0.374437 0.386686C0.873529 -0.0993947 1.68301 -0.0993947 2.18258 0.386686L6.58846 4.67567L11.0173 0.36456C11.5164 -0.12152 12.3256 -0.12152 12.8254 0.36456C13.0755 0.607716 13.2 0.926468 13.2 1.24453C13.2 1.56259 13.0755 1.88157 12.8254 2.1245L7.68608 7.12705C7.63707 7.20149 7.58072 7.27271 7.51396 7.33747C7.25873 7.58593 6.92253 7.70578 6.58798 7.69979C6.25344 7.70578 5.91748 7.58593 5.66201 7.33747Z" fill="var(--fill-0, #ED1C24)"/>
</svg>
