<svg preserveAspectRatio="none" width="100%" height="100%" overflow="visible" style="display: block;" viewBox="0 0 14 14" fill="none" xmlns="http://www.w3.org/2000/svg">
<g id="Logo">
<path id="Vector" d="M7 0C10.8664 0 14 3.13359 14 7C14 10.8664 10.8664 14 7 14C3.13359 14 0 10.8664 0 7C0 3.13359 3.13359 0 7 0Z" fill="var(--fill-0, #0052FF)"/>
<path id="Vector_2" d="M7.00137 9.46094C5.64238 9.46094 4.54043 8.36035 4.54043 7C4.54043 5.63965 5.64238 4.53906 7.00137 4.53906C8.21953 4.53906 9.23125 5.42773 9.42539 6.58984H11.9041C11.6949 4.06328 9.57988 2.07812 7 2.07812C4.28203 2.07812 2.07812 4.28203 2.07812 7C2.07812 9.71797 4.28203 11.9219 7 11.9219C9.57988 11.9219 11.6949 9.93672 11.9041 7.41016H9.42402C9.22851 8.57227 8.21953 9.46094 7.00137 9.46094Z" fill="var(--fill-0, white)"/>
</g>
</svg>
