<svg preserveAspectRatio="none" width="100%" height="100%" overflow="visible" style="display: block;" viewBox="0 0 12 14" fill="none" xmlns="http://www.w3.org/2000/svg">
<path id="Trust Wallet" fill-rule="evenodd" clip-rule="evenodd" d="M5.64395 0.06241C5.55522 0.107284 5.31019 0.272667 5.09944 0.429972C4.4029 0.949821 3.47618 1.34818 2.53671 1.53156C2.15571 1.60592 1.56207 1.6601 0.612515 1.7071C0.366192 1.71929 0.327189 1.73365 0.198683 1.85963C0.120676 1.93608 0.0395235 2.06205 0.0183882 2.13956C-0.0059738 2.22874 -0.0061352 2.7607 0.0179445 3.58957C0.16093 8.51613 0.561935 10.3149 1.77919 11.4898C2.17725 11.874 2.43729 12.0468 3.5869 12.6916C4.09713 12.9777 4.76301 13.3756 5.06665 13.5759C5.37029 13.7761 5.68336 13.958 5.76242 13.9801C5.96062 14.0354 6.13172 13.9797 6.43778 13.76C6.84431 13.4682 7.48627 13.0785 8.26694 12.6496C9.12058 12.1807 9.53925 11.9119 9.90267 11.5994C11.1976 10.486 11.6699 8.40643 11.7766 3.34852C11.7998 2.25175 11.7962 2.15511 11.7277 2.0235C11.5829 1.7454 11.4826 1.71224 10.6882 1.68005C8.82775 1.60462 7.70964 1.21511 6.28931 0.14759C6.07384 -0.0143658 5.85345 -0.0434527 5.64395 0.06241ZM6.51115 1.84918C7.23087 2.28365 8.1413 2.61968 9.07238 2.79452C9.46633 2.86853 10.2193 2.96097 10.4279 2.96097C10.4993 2.96097 10.5042 2.99887 10.5039 3.54229C10.5037 3.86204 10.4856 4.4816 10.4638 4.91912C10.2742 8.71867 9.8971 10.058 8.79287 10.854C8.65823 10.9511 8.1941 11.227 7.76151 11.4671C7.03751 11.8691 6.29967 12.3053 6.00975 12.503C5.89496 12.5812 5.88846 12.5814 5.78791 12.5094C5.56478 12.3497 4.88305 11.9449 4.15618 11.5405C2.91025 10.8473 2.61468 10.6254 2.29979 10.1463C1.70497 9.24138 1.43159 7.62406 1.30393 4.25514C1.27775 3.56461 1.26343 2.99275 1.2721 2.98434C1.28074 2.97594 1.52379 2.94799 1.81218 2.92229C3.18787 2.79962 4.52298 2.35573 5.54263 1.68201L5.88495 1.45584L6.00648 1.53686C6.07327 1.58141 6.3004 1.72199 6.51115 1.84918Z" fill="var(--fill-0, #158CE0)"/>
</svg>
