<svg preserveAspectRatio="none" width="100%" height="100%" overflow="visible" style="display: block;" viewBox="0 0 14 12" fill="none" xmlns="http://www.w3.org/2000/svg">
<g id="Logo">
<path id="Vector" d="M2.15803 7.71606L1.42569 7.98364L1.38672 10.1621L3.9217 9.23601C3.0515 8.94458 2.41688 8.43096 2.15803 7.71606" fill="var(--fill-0, #FDBD39)"/>
<path id="Vector_2" d="M2.54138 5.41199L0 6.34036L1.42571 7.9842L2.15805 7.71662C1.89978 7.00406 2.05917 6.19959 2.54138 5.41199Z" fill="var(--fill-0, #F69833)"/>
<path id="Vector_3" d="M6.81736 2.26798C3.58145 3.44996 1.49494 5.88955 2.15806 7.71604L13.8761 3.43542C13.213 1.60893 10.0533 1.08599 6.81736 2.26798" fill="var(--fill-0, #FECF33)"/>
<path id="Vector_4" d="M9.21622 8.88407C12.4521 7.70208 14.5421 5.27355 13.8755 3.436L2.15747 7.71604C2.82408 9.55417 5.98031 10.0661 9.21622 8.88407Z" fill="var(--fill-0, #EE6723)"/>
<path id="Vector_5" d="M13.8755 3.43542L2.15808 7.71605C2.38727 8.34892 3.2627 8.6607 4.49006 8.6607C5.68717 8.6607 7.21932 8.36462 8.81663 7.78119C12.0525 6.59921 14.3287 4.68488 13.8755 3.43542" fill="var(--fill-0, #F69833)"/>
<path id="Vector_6" d="M11.5436 2.49136C10.347 2.49136 8.81429 2.78744 7.21698 3.37087C3.98107 4.55286 1.70493 6.4666 2.15807 7.71606L13.8761 3.43544C13.6463 2.80257 12.7715 2.49136 11.5436 2.49136" fill="var(--fill-0, #FDBD39)"/>
<g id="Group">
<path id="Vector_7" d="M10.8961 10.2778C10.5512 10.2778 10.0428 9.96659 9.38434 9.35233C8.60546 8.62581 7.71374 7.56133 6.87204 6.35549C6.03092 5.14966 5.33988 3.94441 4.92572 2.96078C4.47491 1.88931 4.41035 1.23085 4.73434 1.00283C4.80938 0.951637 4.89838 0.925461 4.98912 0.927788C5.25263 0.927788 5.76684 1.12382 6.71673 2.05917L6.73767 2.07952L6.73476 2.10861C6.72836 2.17608 6.72254 2.24356 6.71731 2.31045L6.70684 2.4425L6.61377 2.34884C5.59 1.31752 5.13978 1.20642 4.99319 1.20642C4.95131 1.20642 4.91816 1.21456 4.89431 1.23143C4.75354 1.33031 4.74423 1.81428 5.18166 2.85258C5.58826 3.81818 6.26941 5.0054 7.09948 6.19553C7.93012 7.38624 8.80847 8.43443 9.57397 9.14816C10.3988 9.91773 10.7705 10.0009 10.8921 10.0009C10.9339 10.0009 10.9677 9.99219 10.9933 9.97416C11.1416 9.87003 11.1416 9.35175 10.6542 8.23375L10.6315 8.18257L10.6803 8.15581C10.7292 8.12905 10.7769 8.10287 10.8211 8.07728L10.8798 8.04412L10.9072 8.10578C11.2527 8.89804 11.5761 9.90494 11.1521 10.2028C11.077 10.2539 10.9875 10.2801 10.8961 10.2778ZM10.8961 10.1556V10.2167V10.1556Z" fill="var(--fill-0, #EE6723)"/>
<path id="Vector_8" d="M9.29476 8.85034L9.2901 8.91084C9.20809 9.92297 8.99286 11.1399 8.43095 11.1893C8.41932 11.1905 8.40769 11.1905 8.39664 11.1905C8.01505 11.1905 7.65382 10.6437 7.32401 9.56581C7.01106 8.54554 6.7685 7.17625 6.64111 5.70982C6.51314 4.24339 6.51488 2.85258 6.64634 1.79334C6.78944 0.639272 7.06167 0.0366462 7.45605 0.00174506C7.46768 0.000581685 7.4799 0 7.49153 0C7.76842 0 8.18548 0.313528 8.61244 1.77356L8.33381 1.82707C8.1913 1.33962 8.03599 0.942912 7.88184 0.66952C7.73933 0.41765 7.60031 0.278627 7.49153 0.278627C7.48804 0.278627 7.48455 0.278627 7.48048 0.279209C7.30947 0.294333 7.0605 0.708493 6.92206 1.82765C6.79293 2.86771 6.79118 4.23816 6.91741 5.68539C7.04364 7.13321 7.28213 8.48213 7.58926 9.4838C7.72653 9.93227 7.87719 10.3022 8.02552 10.5529C8.16163 10.7844 8.29368 10.9118 8.39664 10.9118C8.40013 10.9118 8.40362 10.9118 8.40711 10.9113C8.57056 10.8973 8.87885 10.4657 9.00857 8.94806L9.29476 8.85034Z" fill="var(--fill-0, #EE6723)"/>
</g>
</g>
</svg>
