<svg preserveAspectRatio="none" width="100%" height="100%" overflow="visible" style="display: block;" viewBox="0 0 7 10" fill="none" xmlns="http://www.w3.org/2000/svg">
<g id="Group">
<path id="Vector" d="M1.94291 2.55161C1.94291 2.91061 2.04456 3.19112 2.24785 3.39185C2.45115 3.59258 2.72007 3.69295 3.05847 3.69295C3.40073 3.69295 3.67351 3.59258 3.87938 3.38799C4.08396 3.18469 4.1869 2.90418 4.1869 2.54517C4.1869 2.20676 4.08525 1.93655 3.88195 1.73453C3.67994 1.53122 3.41102 1.42957 3.07777 1.42957C2.73165 1.42957 2.45501 1.53251 2.25043 1.7371C2.04584 1.94169 1.94291 2.2132 1.94291 2.55161ZM1.77692 6.57782C1.77692 7.07451 1.90302 7.46053 2.15778 7.73846C2.41255 8.0164 2.72908 8.15537 3.10994 8.15537C3.48179 8.15537 3.78931 8.02155 4.03378 7.75519C4.27568 7.48755 4.39792 7.10153 4.39792 6.59841C4.39792 6.15706 4.27439 5.8032 4.02606 5.53556C3.77902 5.26921 3.46506 5.13539 3.0842 5.13539C2.64415 5.13539 2.31605 5.28722 2.09988 5.59089C1.88372 5.89456 1.77692 6.22397 1.77692 6.57782ZM1.57105 4.36591C1.10527 4.17033 0.765582 3.89883 0.554565 3.55527C0.343547 3.21171 0.238038 2.83469 0.238038 2.42293C0.238038 1.72166 0.48251 1.14263 0.971453 0.685833C1.4604 0.227753 2.1565 0 3.05847 0C3.95143 0 4.64496 0.227753 5.13905 0.685833C5.63314 1.14263 5.88019 1.72166 5.88019 2.42293C5.88019 2.85914 5.76567 3.24774 5.53921 3.58744C5.31276 3.92714 4.99494 4.18706 4.58449 4.36591C5.1056 4.57565 5.5019 4.8819 5.77339 5.28336C6.04488 5.68482 6.17999 6.14934 6.17999 6.67433C6.17999 7.54159 5.90463 8.24801 5.35007 8.79102C4.79679 9.33402 4.0608 9.60424 3.1421 9.60424C2.28774 9.60424 1.57491 9.38035 1.00619 8.93127C0.335827 8.40114 0 7.67413 0 6.75153C0 6.24198 0.126096 5.77618 0.378288 5.35027C0.63048 4.92565 1.02807 4.59753 1.57105 4.36591Z" fill="var(--fill-0, white)"/>
</g>
</svg>
