<svg preserveAspectRatio="none" width="100%" height="100%" overflow="visible" style="display: block;" viewBox="0 0 20 20" fill="none" xmlns="http://www.w3.org/2000/svg">
<g id="mdi:location-radius">
<path id="Vector" d="M9.9987 1.08986C12.757 1.08986 14.9987 3.30653 14.9987 6.04819C14.9987 9.76486 9.9987 15.2565 9.9987 15.2565C9.9987 15.2565 4.9987 9.76486 4.9987 6.04819C4.9987 3.30653 7.24036 1.08986 9.9987 1.08986ZM9.9987 4.42319C9.55667 4.42319 9.13275 4.59879 8.82019 4.91135C8.50763 5.22391 8.33203 5.64783 8.33203 6.08986C8.33203 6.53189 8.50763 6.95581 8.82019 7.26837C9.13275 7.58093 9.55667 7.75653 9.9987 7.75653C10.4407 7.75653 10.8646 7.58093 11.1772 7.26837C11.4898 6.95581 11.6654 6.53189 11.6654 6.08986C11.6654 5.64783 11.4898 5.22391 11.1772 4.91135C10.8646 4.59879 10.4407 4.42319 9.9987 4.42319ZM16.6654 15.2565C16.6654 17.0982 13.682 18.5899 9.9987 18.5899C6.31536 18.5899 3.33203 17.0982 3.33203 15.2565C3.33203 14.1815 4.3487 13.2232 5.9237 12.6149L6.45703 13.3732C5.55703 13.7482 4.9987 14.2649 4.9987 14.8399C4.9987 15.9899 7.24036 16.9232 9.9987 16.9232C12.757 16.9232 14.9987 15.9899 14.9987 14.8399C14.9987 14.2649 14.4404 13.7482 13.5404 13.3732L14.0737 12.6149C15.6487 13.2232 16.6654 14.1815 16.6654 15.2565Z" fill="var(--fill-0, white)"/>
</g>
</svg>
