<svg preserveAspectRatio="none" width="100%" height="100%" overflow="visible" style="display: block;" viewBox="0 0 15 14" fill="none" xmlns="http://www.w3.org/2000/svg">
<g id="Logo">
<path id="Vector" d="M13.4338 0.125019L7.96202 4.17261L8.98224 1.78653L13.4338 0.125019Z" fill="var(--fill-0, #E17726)" stroke="var(--stroke-0, #E17726)" stroke-width="0.25" stroke-linecap="round" stroke-linejoin="round"/>
<path id="Vector_2" d="M0.816225 0.125019L6.23799 4.20592L5.26773 1.79069L0.816225 0.125019ZM11.464 9.50693L10.0066 11.7306L13.1256 12.5884L14.0167 9.5569L11.464 9.50693ZM0.237403 9.5569L1.12438 12.5884L4.23502 11.7306L2.78589 9.50693L0.237403 9.5569Z" fill="var(--fill-0, #E27625)" stroke="var(--stroke-0, #E27625)" stroke-width="0.25" stroke-linecap="round" stroke-linejoin="round"/>
<path id="Vector_3" d="M4.06842 5.75076L3.20227 7.05831L6.28377 7.1999L6.18383 3.88104L4.06842 5.75492V5.75076ZM10.1814 5.75492L8.03273 3.8394L7.96194 7.1999L11.0434 7.05831L10.1814 5.75492ZM4.23499 11.7305L6.10471 10.8311L4.49733 9.58181L4.23499 11.7305ZM8.14932 10.8269L10.0066 11.7305L9.7567 9.57765L8.14932 10.8269Z" fill="var(--fill-0, #E27625)" stroke="var(--stroke-0, #E27625)" stroke-width="0.25" stroke-linecap="round" stroke-linejoin="round"/>
<path id="Vector_4" d="M10.0066 11.7306L8.14939 10.8311L8.2993 12.0388L8.28264 12.551L10.0066 11.7306ZM4.23505 11.7306L5.96735 12.551L5.95486 12.0388L6.10477 10.8311L4.23505 11.7306Z" fill="var(--fill-0, #D5BFB2)" stroke="var(--stroke-0, #D5BFB2)" stroke-width="0.25" stroke-linecap="round" stroke-linejoin="round"/>
<path id="Vector_5" d="M5.99641 8.7782L4.45566 8.32847L5.54668 7.82876L6.00058 8.7782H5.99641ZM8.24924 8.7782L8.7073 7.8246L9.80248 8.3243L8.24924 8.78236V8.7782Z" fill="var(--fill-0, #233447)" stroke="var(--stroke-0, #233447)" stroke-width="0.25" stroke-linecap="round" stroke-linejoin="round"/>
<path id="Vector_6" d="M4.23496 11.7305L4.50563 9.50684L2.78582 9.55681L4.23496 11.7305ZM9.74418 9.50684L10.0065 11.7305L11.464 9.55681L9.74418 9.50684ZM11.0476 7.0583L7.96608 7.19988L8.24924 8.78227L8.7073 7.82451L9.80248 8.32421L11.0476 7.0583ZM4.45566 8.32838L5.54668 7.82868L6.00058 8.77811L6.28791 7.19572L3.2064 7.0583L4.45566 8.32838Z" fill="var(--fill-0, #CC6228)" stroke="var(--stroke-0, #CC6228)" stroke-width="0.25" stroke-linecap="round" stroke-linejoin="round"/>
<path id="Vector_7" d="M3.20646 7.0583L4.49736 9.57763L4.45572 8.32838L3.20646 7.0583ZM9.80253 8.32838L9.75256 9.57763L11.0435 7.0583L9.80253 8.32838ZM6.28796 7.19988L5.99646 8.78227L6.36291 10.6478L6.4462 8.1868L6.28796 7.19988ZM7.96196 7.19988L7.81205 8.18263L7.88701 10.6478L8.24929 8.77811L7.96196 7.19572V7.19988Z" fill="var(--fill-0, #E27525)" stroke="var(--stroke-0, #E27525)" stroke-width="0.25" stroke-linecap="round" stroke-linejoin="round"/>
<path id="Vector_8" d="M8.24927 8.77821L7.88699 10.6479L8.14933 10.8311L9.75255 9.58185L9.80252 8.32847L8.24927 8.77821ZM4.4557 8.32847L4.49734 9.57773L6.10472 10.827L6.3629 10.6479L6.00061 8.77821L4.45153 8.32847H4.4557Z" fill="var(--fill-0, #F5841F)" stroke="var(--stroke-0, #F5841F)" stroke-width="0.25" stroke-linecap="round" stroke-linejoin="round"/>
<path id="Vector_9" d="M8.28681 12.551L8.2993 12.0388L8.15772 11.9222H6.09228L5.95486 12.0388L5.96735 12.551L4.23505 11.7306L4.84302 12.2303L6.07146 13.0757H8.17437L9.40697 12.2262L10.0066 11.7306L8.28264 12.551H8.28681Z" fill="var(--fill-0, #C0AC9D)" stroke="var(--stroke-0, #C0AC9D)" stroke-width="0.25" stroke-linecap="round" stroke-linejoin="round"/>
<path id="Vector_10" d="M8.14937 10.827L7.88702 10.6479H6.36293L6.10475 10.8311L5.95484 12.0387L6.09226 11.9221H8.15769L8.29928 12.0387L8.14937 10.8311V10.827Z" fill="var(--fill-0, #161616)" stroke="var(--stroke-0, #161616)" stroke-width="0.25" stroke-linecap="round" stroke-linejoin="round"/>
<path id="Vector_11" d="M13.6669 4.43495L14.125 2.20711L13.4337 0.125019L8.14523 4.03936L10.1815 5.75084L13.0548 6.58784L13.6878 5.85078L13.4129 5.6509L13.8502 5.25113L13.517 4.99295L13.9543 4.65982L13.6628 4.43495H13.6669ZM0.125 2.20295L0.591389 4.43495L0.291568 4.65566L0.737136 4.98879L0.404001 5.25113L0.837076 5.6509L0.56224 5.85078L1.1952 6.58784L4.06849 5.755L6.10477 4.03519L0.816255 0.125019L0.125 2.20295Z" fill="var(--fill-0, #763E1A)" stroke="var(--stroke-0, #763E1A)" stroke-width="0.25" stroke-linecap="round" stroke-linejoin="round"/>
<path id="Vector_12" d="M13.0548 6.58779L10.1815 5.75495L11.0476 7.05834L9.75673 9.57768L11.464 9.55685H14.0167L13.0548 6.58779ZM4.06845 5.75079L1.19517 6.58779L0.237403 9.55685H2.79005L4.49736 9.57768L3.20647 7.05834L4.07261 5.75079H4.06845ZM7.96196 7.19992L8.14935 4.03514L8.98219 1.78647H5.26774L6.10057 4.03514L6.28796 7.19992L6.35875 8.191V10.6479H7.88701L7.89534 8.191L7.96196 7.19992Z" fill="var(--fill-0, #F5841F)" stroke="var(--stroke-0, #F5841F)" stroke-width="0.25" stroke-linecap="round" stroke-linejoin="round"/>
</g>
</svg>
