<svg preserveAspectRatio="none" width="100%" height="100%" overflow="visible" style="display: block;" viewBox="0 0 14 12" fill="none" xmlns="http://www.w3.org/2000/svg">
<g id="Logo">
<path id="path5" d="M14 1.34294C13.4849 1.57076 12.9313 1.72467 12.3504 1.79391C12.9433 1.43947 13.3988 0.878215 13.6132 0.209399C13.0582 0.537665 12.4435 0.775958 11.7893 0.904389C11.2654 0.34774 10.5189 0 9.69275 0C8.10655 0 6.82044 1.28228 6.82044 2.86393C6.82044 3.08841 6.84585 3.30702 6.89485 3.51663C4.50771 3.3972 2.39132 2.25696 0.974658 0.524192C0.727418 0.947176 0.585737 1.43912 0.585737 1.96401C0.585737 2.95768 1.09282 3.83428 1.86352 4.34787C1.3927 4.333 0.949808 4.20415 0.562567 3.98966C0.56224 4.00159 0.562241 4.0136 0.562241 4.02567C0.562241 5.41328 1.55232 6.57076 2.8663 6.83405C2.62528 6.89952 2.37153 6.93449 2.10959 6.93449C1.92451 6.93449 1.74461 6.91648 1.56919 6.88312C1.93473 8.02091 2.99545 8.84894 4.25237 8.87198C3.26936 9.64019 2.03091 10.0981 0.685162 10.0981C0.453321 10.0981 0.224701 10.0845 0 10.058C1.27113 10.8707 2.78089 11.3448 4.40294 11.3448C9.68606 11.3448 12.5752 6.98077 12.5752 3.19597C12.5752 3.0718 12.5724 2.94832 12.5668 2.8254C13.128 2.42169 13.6149 1.91732 14 1.34294H14Z" fill="var(--fill-0, #2AA9E0)"/>
</g>
</svg>
