<svg preserveAspectRatio="none" width="100%" height="100%" overflow="visible" style="display: block;" viewBox="0 0 14 9" fill="none" xmlns="http://www.w3.org/2000/svg">
<g id="logo">
<path id="Vector" d="M12.8333 1.16667H8.75V0H12.8333V1.16667ZM13.8402 7C13.5823 7.75658 12.6566 8.75 10.8646 8.75C9.07142 8.75 7.61892 7.74142 7.61892 5.43958C7.61892 3.15875 8.97517 1.98625 10.8074 1.98625C12.6053 1.98625 13.7031 3.02575 13.9428 4.56808C13.9883 4.86325 14.0064 5.26108 13.9983 5.81642H9.31583C9.39167 7.6895 11.3476 7.74842 11.9922 7H13.8402ZM9.35667 4.66667H12.2529C12.1917 3.76425 11.5903 3.37225 10.808 3.37225C9.95283 3.37225 9.47975 3.82025 9.35667 4.66667ZM3.77183 8.743H0V0.0122499H4.05592C7.25025 0.0594999 7.31092 3.18792 5.64258 4.04075C7.6615 4.77575 7.72917 8.743 3.77183 8.743V8.743ZM1.75 3.5H3.84067C5.30367 3.5 5.53583 1.75 3.65867 1.75H1.75V3.5V3.5ZM3.72808 5.25H1.75V7.00933H3.69892C5.481 7.00933 5.37192 5.25 3.72808 5.25V5.25Z" fill="var(--fill-0, #206CF6)"/>
</g>
</svg>
