<svg preserveAspectRatio="none" width="100%" height="100%" overflow="visible" style="display: block;" viewBox="0 0 20 20" fill="none" xmlns="http://www.w3.org/2000/svg">
<g id="category-2">
<path id="Vector" d="M15.5576 1.66699H13.9742C12.1576 1.66699 11.1992 2.62533 11.1992 4.44199V6.02533C11.1992 7.84199 12.1576 8.80033 13.9742 8.80033H15.5576C17.3742 8.80033 18.3326 7.84199 18.3326 6.02533V4.44199C18.3326 2.62533 17.3742 1.66699 15.5576 1.66699Z" fill="var(--fill-0, #2C2A29)"/>
<path id="Vector_2" d="M6.03268 11.1914H4.44935C2.62435 11.1914 1.66602 12.1497 1.66602 13.9664V15.5497C1.66602 17.3747 2.62435 18.3331 4.44102 18.3331H6.02435C7.84102 18.3331 8.79935 17.3747 8.79935 15.5581V13.9747C8.80768 12.1497 7.84935 11.1914 6.03268 11.1914Z" fill="var(--fill-0, #2C2A29)"/>
<path id="Vector_3" d="M5.24102 8.81699C7.21543 8.81699 8.81602 7.21641 8.81602 5.24199C8.81602 3.26757 7.21543 1.66699 5.24102 1.66699C3.2666 1.66699 1.66602 3.26757 1.66602 5.24199C1.66602 7.21641 3.2666 8.81699 5.24102 8.81699Z" fill="var(--fill-0, #2C2A29)"/>
<path id="Vector_4" d="M14.7586 18.3336C16.733 18.3336 18.3336 16.733 18.3336 14.7586C18.3336 12.7842 16.733 11.1836 14.7586 11.1836C12.7842 11.1836 11.1836 12.7842 11.1836 14.7586C11.1836 16.733 12.7842 18.3336 14.7586 18.3336Z" fill="var(--fill-0, #2C2A29)"/>
<g id="Vector_5" opacity="0">
</g>
</g>
</svg>
