<svg preserveAspectRatio="none" width="100%" height="100%" overflow="visible" style="display: block;" viewBox="0 0 51 38" fill="none" xmlns="http://www.w3.org/2000/svg">
<g id="Group">
<path id="Vector" d="M0.148376 0H7.64409L19.3877 11.7436V15.2937H10.4083L0 4.8854L0.148376 0Z" fill="var(--fill-0, #CCCCCC)"/>
<path id="Vector_2" d="M49.9579 0H42.4567L30.7185 11.7436V15.2937H39.6925L50.1062 4.8854L49.9579 0Z" fill="var(--fill-0, #CCCCCC)"/>
<path id="Vector_3" d="M0.148376 37.3962H7.64409L19.3877 25.6526V22.1025H10.4083L0 32.5108L0.148376 37.3962Z" fill="var(--fill-0, #CCCCCC)"/>
<path id="Vector_4" d="M49.919 37.3962H42.4178L30.6797 25.6526V22.1025H39.6537L50.0674 32.5108L49.919 37.3962Z" fill="var(--fill-0, #CCCCCC)"/>
<path id="Vector_5" d="M25.0121 21.9422C27.1934 21.9422 28.9617 20.1739 28.9617 17.9926C28.9617 15.8113 27.1934 14.043 25.0121 14.043C22.8308 14.043 21.0625 15.8113 21.0625 17.9926C21.0625 20.1739 22.8308 21.9422 25.0121 21.9422Z" fill="var(--fill-0, #CCCCCC)"/>
</g>
</svg>
