<svg preserveAspectRatio="none" width="100%" height="100%" overflow="visible" style="display: block;" viewBox="0 0 20 20" fill="none" xmlns="http://www.w3.org/2000/svg">
<g id="category-2">
<path id="Vector" d="M14.166 8.33366H15.8327C17.4993 8.33366 18.3327 7.50033 18.3327 5.83366V4.16699C18.3327 2.50033 17.4993 1.66699 15.8327 1.66699H14.166C12.4993 1.66699 11.666 2.50033 11.666 4.16699V5.83366C11.666 7.50033 12.4993 8.33366 14.166 8.33366Z" stroke="var(--stroke-0, #6B6969)" stroke-width="1.5" stroke-miterlimit="10" stroke-linecap="round" stroke-linejoin="round"/>
<path id="Vector_2" d="M4.16602 18.3337H5.83268C7.49935 18.3337 8.33268 17.5003 8.33268 15.8337V14.167C8.33268 12.5003 7.49935 11.667 5.83268 11.667H4.16602C2.49935 11.667 1.66602 12.5003 1.66602 14.167V15.8337C1.66602 17.5003 2.49935 18.3337 4.16602 18.3337Z" stroke="var(--stroke-0, #6B6969)" stroke-width="1.5" stroke-miterlimit="10" stroke-linecap="round" stroke-linejoin="round"/>
<path id="Vector_3" d="M4.99935 8.33366C6.8403 8.33366 8.33268 6.84127 8.33268 5.00033C8.33268 3.15938 6.8403 1.66699 4.99935 1.66699C3.1584 1.66699 1.66602 3.15938 1.66602 5.00033C1.66602 6.84127 3.1584 8.33366 4.99935 8.33366Z" stroke="var(--stroke-0, #6B6969)" stroke-width="1.5" stroke-miterlimit="10" stroke-linecap="round" stroke-linejoin="round"/>
<path id="Vector_4" d="M14.9993 18.3337C16.8403 18.3337 18.3327 16.8413 18.3327 15.0003C18.3327 13.1594 16.8403 11.667 14.9993 11.667C13.1584 11.667 11.666 13.1594 11.666 15.0003C11.666 16.8413 13.1584 18.3337 14.9993 18.3337Z" stroke="var(--stroke-0, #6B6969)" stroke-width="1.5" stroke-miterlimit="10" stroke-linecap="round" stroke-linejoin="round"/>
<g id="Vector_5" opacity="0">
</g>
</g>
</svg>
