<svg preserveAspectRatio="none" width="100%" height="100%" overflow="visible" style="display: block;" viewBox="0 0 16 16" fill="none" xmlns="http://www.w3.org/2000/svg">
<g id="flag">
<path id="Vector" d="M12.0123 8.22L11.199 7.40667C11.0056 7.24 10.8923 6.99333 10.8856 6.72C10.8723 6.42 10.9923 6.12 11.2123 5.9L12.0123 5.1C12.7056 4.40667 12.9656 3.74 12.7456 3.21333C12.5323 2.69333 11.8723 2.40667 10.899 2.40667H3.93229V1.83333C3.93229 1.56 3.70562 1.33333 3.43229 1.33333C3.15896 1.33333 2.93229 1.56 2.93229 1.83333V14.1667C2.93229 14.44 3.15896 14.6667 3.43229 14.6667C3.70562 14.6667 3.93229 14.44 3.93229 14.1667V10.9133H10.899C11.859 10.9133 12.5056 10.62 12.7256 10.0933C12.9456 9.56667 12.6923 8.90667 12.0123 8.22Z" fill="var(--fill-0, #ED1C24)"/>
<g id="Vector_2" opacity="0">
</g>
</g>
</svg>
