<svg preserveAspectRatio="none" width="100%" height="100%" overflow="visible" style="display: block;" viewBox="0 0 15 17" fill="none" xmlns="http://www.w3.org/2000/svg">
<g id="Vector">
<path d="M3.89894 1.16667C4.89061 1.16667 5.69894 1.975 5.69894 2.96667C5.69894 3.95833 4.89061 4.76667 3.89894 4.76667C2.90727 4.76667 2.09894 3.95833 2.09894 2.96667C2.09894 1.975 2.90727 1.16667 3.89894 1.16667ZM3.89894 0C2.26561 0 0.932275 1.325 0.932275 2.96667C0.932275 4.60833 2.25727 5.93333 3.89894 5.93333C5.54061 5.93333 6.86561 4.60833 6.86561 2.96667C6.86561 1.325 5.53227 0 3.89894 0Z" fill="var(--fill-0, #646464)"/>
<path d="M3.89894 7.35C4.82394 7.35 5.56561 7.625 6.03227 8.15C6.50727 8.675 6.70727 9.46667 6.60727 10.425V10.475L6.29894 15.5H1.50727L1.19894 10.475V10.425C1.09894 9.45833 1.29894 8.675 1.77394 8.15C2.24894 7.625 2.98227 7.35 3.90727 7.35M3.90727 6.18333C1.45727 6.18333 -0.259392 7.76667 0.0322745 10.55L0.357275 15.8417C0.407275 16.3 0.790608 16.675 1.21561 16.675H6.58227C7.00727 16.675 7.39061 16.3 7.44061 15.8417L7.76561 10.55C8.05727 7.76667 6.34061 6.18333 3.89894 6.18333H3.90727Z" fill="var(--fill-0, #646464)"/>
<path d="M11.175 5.01667C11.7833 5.01667 12.275 5.50833 12.275 6.11667C12.275 6.725 11.7833 7.21667 11.175 7.21667C10.5666 7.21667 10.075 6.725 10.075 6.11667C10.075 5.50833 10.5666 5.01667 11.175 5.01667ZM11.175 3.85C9.92496 3.85 8.90829 4.86667 8.90829 6.11667C8.90829 7.36667 9.92496 8.38333 11.175 8.38333C12.425 8.38333 13.4416 7.36667 13.4416 6.11667C13.4416 4.86667 12.425 3.85 11.175 3.85Z" fill="var(--fill-0, #646464)"/>
<path d="M11.175 9.75833C11.6166 9.75833 12.2166 9.85 12.6083 10.2833C13 10.7167 13.025 11.3583 12.975 11.8167V11.8667L12.75 15.4583H9.59996L9.37496 11.8667V11.8167C9.32496 11.3583 9.34996 10.7167 9.74163 10.2833C10.1333 9.85 10.7333 9.75833 11.175 9.75833ZM11.175 8.59167C9.29996 8.59167 7.99163 9.80833 8.20829 11.9333L8.45829 15.9833C8.49163 16.3333 8.79163 16.6167 9.11663 16.6167H13.225C13.55 16.6167 13.8416 16.3333 13.8833 15.9833L14.1333 11.9333C14.3583 9.8 13.0416 8.59167 11.1666 8.59167H11.175Z" fill="var(--fill-0, #646464)"/>
</g>
</svg>
