<svg preserveAspectRatio="none" width="100%" height="100%" overflow="visible" style="display: block;" viewBox="0 0 17 21" fill="none" xmlns="http://www.w3.org/2000/svg">
<g id="?" filter="url(#filter0_d_14922_42072)">
<path d="M9.17363 8.16067H7.03517V7.85077C7.03517 6.41933 7.92747 5.71099 8.71209 5.10595C9.34286 4.61897 9.8967 4.17625 9.8967 3.45316C9.8967 2.612 9.4044 2.12502 8.52747 2.12502C7.58901 2.12502 7.0044 2.77433 7.0044 3.80733H4.52747C4.52747 1.54949 6.18901 0 8.58901 0C11.0044 0 12.4505 1.22484 12.4505 3.29083C12.4505 4.89935 11.3582 5.65196 10.4813 6.22749C9.77363 6.68496 9.17363 7.12767 9.17363 7.85077V8.16067ZM8.17363 11.3187C7.38901 11.3187 6.75824 10.7136 6.75824 9.99054C6.75824 9.25269 7.38901 8.64765 8.17363 8.64765C8.94286 8.64765 9.58901 9.26745 9.58901 9.99054C9.58901 10.6989 8.94286 11.3187 8.17363 11.3187Z" fill="var(--fill-0, white)"/>
</g>
<defs>
<filter id="filter0_d_14922_42072" x="0" y="0" width="16.978" height="20.3736" filterUnits="userSpaceOnUse" color-interpolation-filters="sRGB">
<feFlood flood-opacity="0" result="BackgroundImageFix"/>
<feColorMatrix in="SourceAlpha" type="matrix" values="0 0 0 0 0 0 0 0 0 0 0 0 0 0 0 0 0 0 127 0" result="hardAlpha"/>
<feOffset dy="4.52747"/>
<feGaussianBlur stdDeviation="2.26374"/>
<feComposite in2="hardAlpha" operator="out"/>
<feColorMatrix type="matrix" values="0 0 0 0 0 0 0 0 0 0 0 0 0 0 0 0 0 0 0.25 0"/>
<feBlend mode="normal" in2="BackgroundImageFix" result="effect1_dropShadow_14922_42072"/>
<feBlend mode="normal" in="SourceGraphic" in2="effect1_dropShadow_14922_42072" result="shape"/>
</filter>
</defs>
</svg>
